<?xml version="1.0" encoding="utf-8" standalone="no"?>
<!DOCTYPE svg PUBLIC "-//W3C//DTD SVG 1.1//EN"
  "http://www.w3.org/Graphics/SVG/1.1/DTD/svg11.dtd">
<!-- Created with matplotlib (http://matplotlib.org/) -->
<svg height="432pt" version="1.1" viewBox="0 0 576 432" width="576pt" xmlns="http://www.w3.org/2000/svg" xmlns:xlink="http://www.w3.org/1999/xlink">
 <defs>
  <style type="text/css">
*{stroke-linecap:butt;stroke-linejoin:round;}
  </style>
 </defs>
 <g id="figure_1">
  <g id="patch_1">
   <path d="
M0 432
L576 432
L576 0
L0 0
z
" style="fill:#ffffff;"/>
  </g>
  <g id="axes_1">
   <g id="patch_2">
    <path d="
M52.5297 356.72
L565.2 356.72
L565.2 32
L52.5297 32
z
" style="fill:#e5e5e5;"/>
   </g>
   <g id="matplotlib.axis_1">
    <g id="xtick_1">
     <g id="line2d_1">
      <path clip-path="url(#pc73cc5c586)" d="
M52.5297 356.72
L52.5297 32" style="fill:none;stroke:#ffffff;stroke-linecap:square;stroke-width:0.5;"/>
     </g>
     <g id="line2d_2">
      <defs>
       <path d="
M0 0
L0 4" id="m98e6b566c6" style="stroke:#555555;stroke-width:0.5;"/>
      </defs>
      <g>
       <use style="fill:#555555;stroke:#555555;stroke-width:0.5;" x="52.5296874978" xlink:href="#m98e6b566c6" y="356.719845853"/>
      </g>
     </g>
     <g id="line2d_3">
      <defs>
       <path d="
M0 0
L0 -4" id="m4ba1eff96d" style="stroke:#555555;stroke-width:0.5;"/>
      </defs>
      <g>
       <use style="fill:#555555;stroke:#555555;stroke-width:0.5;" x="52.5296874978" xlink:href="#m4ba1eff96d" y="32.0"/>
      </g>
     </g>
     <g id="text_1">
      <!-- Oct 12 2014 -->
      <defs>
       <path d="
M24.0312 6.5
Q27.7344 6.5 30.2656 9.34375
Q32.8125 12.2031 32.8125 17
L41.7031 17
L41.7969 16.7031
Q42 9.23438 36.75 4.09375
Q31.5 -1.03125 24.0312 -1.03125
Q14.1562 -1.03125 8.90625 5.65625
Q3.65625 12.3594 3.65625 22.7031
L3.65625 29.9844
Q3.65625 40.3281 8.90625 47.0625
Q14.1562 53.8125 23.9688 53.8125
Q31.9844 53.8125 36.9844 48.4531
Q42 43.1094 41.8438 34.625
L41.7031 34.3281
L32.8125 34.3281
Q32.8125 39.5938 30.3906 42.8906
Q27.9844 46.1875 23.9688 46.1875
Q18.3125 46.1875 15.9375 41.5938
Q13.5781 37.0156 13.5781 29.9844
L13.5781 22.7031
Q13.5781 15.5781 15.9375 11.0312
Q18.3125 6.5 24.0312 6.5" id="RobotoCondensed-Regular-63"/>
       <path d="
M18.3125 65.9688
L18.3125 52.8281
L26.5625 52.8281
L26.5625 45.75
L18.3125 45.75
L18.3125 14.3125
Q18.3125 10.2031 19.5312 8.46875
Q20.75 6.73438 22.7031 6.73438
Q23.875 6.73438 24.875 6.875
Q25.875 7.03125 27.25 7.32812
L28.2656 0.484375
Q26.6094 -0.203125 24.5312 -0.609375
Q22.4688 -1.03125 20.2656 -1.03125
Q14.6562 -1.03125 11.5469 2.65625
Q8.45312 6.34375 8.45312 14.3125
L8.45312 45.75
L1.5625 45.75
L1.5625 52.8281
L8.45312 52.8281
L8.45312 65.9688
z
" id="RobotoCondensed-Regular-74"/>
       <path d="
M38.7188 24.2656
L46.3438 24.2656
L46.3438 16.7031
L38.7188 16.7031
L38.7188 0
L28.8594 0
L28.8594 16.7031
L3.03125 16.7031
L2.73438 22.2656
L28.5625 71.0938
L38.7188 71.0938
z

M12.5 24.2656
L28.8594 24.2656
L28.8594 56.7344
L28.5625 56.7812
L27.5938 54.7344
z
" id="RobotoCondensed-Regular-34"/>
       <path d="
M52.1562 25.7344
Q52.1562 13.0938 45.6094 6.03125
Q39.0625 -1.03125 28.0781 -1.03125
Q17.2344 -1.03125 10.8281 6.03125
Q4.4375 13.0938 4.4375 25.7344
L4.4375 45.2656
Q4.4375 57.8594 10.8594 64.9844
Q17.2812 72.125 28.0781 72.125
Q39.0156 72.125 45.5781 64.9844
Q52.1562 57.8594 52.1562 45.2656
z

M42.2812 45.4062
Q42.2812 54.6875 38.5625 59.5
Q34.8594 64.3125 28.0781 64.3125
Q21.3906 64.3125 17.8281 59.5
Q14.2656 54.6875 14.2656 45.4062
L14.2656 25.7344
Q14.2656 16.3594 17.8438 11.5156
Q21.4375 6.6875 28.0781 6.6875
Q34.9062 6.6875 38.5938 11.5
Q42.2812 16.3125 42.2812 25.7344
z
" id="RobotoCondensed-Regular-4f"/>
       <path d="
M44.1875 27.4844
Q44.1875 13.6719 38.8906 6.3125
Q33.5938 -1.03125 24.5156 -1.03125
Q15.375 -1.03125 10.0312 6.34375
Q4.6875 13.7188 4.6875 27.4844
L4.6875 43.5625
Q4.6875 57.2812 10 64.7031
Q15.3281 72.125 24.4219 72.125
Q33.5 72.125 38.8438 64.7031
Q44.1875 57.2812 44.1875 43.5625
z

M34.3281 44.9688
Q34.3281 54.6406 31.7656 59.5625
Q29.2031 64.5 24.4219 64.5
Q19.625 64.5 17.1094 59.5469
Q14.5938 54.5938 14.5938 44.9688
L14.5938 26.125
Q14.5938 16.4531 17.1562 11.4688
Q19.7344 6.5 24.5156 6.5
Q29.25 6.5 31.7812 11.4531
Q34.3281 16.4062 34.3281 26.125
z
" id="RobotoCondensed-Regular-30"/>
       <path d="
M30.7656 -0.09375
L20.9062 -0.09375
L20.9062 61.1875
L6.98438 60.25
L6.98438 66.6562
L30.7656 71.1406
z
" id="RobotoCondensed-Regular-31"/>
       <path d="
M44.8281 0
L4.9375 0
L4.9375 6.59375
L24.4688 32.2812
Q29.2031 38.9688 31.0781 43.3281
Q32.9531 47.7031 32.9531 51.8125
Q32.9531 57.4219 30.5781 60.9531
Q28.2188 64.5 24.0781 64.5
Q18.8438 64.5 16.2344 60.5938
Q13.625 56.6875 13.625 49.9531
L4.10938 49.9531
L4 50.2031
Q3.8125 59.4219 9.23438 65.7656
Q14.6562 72.125 24.0781 72.125
Q32.7656 72.125 37.8125 66.625
Q42.875 61.1406 42.875 52.0938
Q42.875 46 39.7656 40.0625
Q36.6719 34.125 30.7656 26.8125
L17.3281 7.51562
L44.8281 7.51562
z
" id="RobotoCondensed-Regular-32"/>
       <path id="RobotoCondensed-Regular-20"/>
      </defs>
      <g style="fill:#555555;" transform="translate(32.2078805482 418.43388666)rotate(-45.0)scale(0.14 -0.14)">
       <use xlink:href="#RobotoCondensed-Regular-4f"/>
       <use x="56.640625" xlink:href="#RobotoCondensed-Regular-63"/>
       <use x="101.611328125" xlink:href="#RobotoCondensed-Regular-74"/>
       <use x="132.275390625" xlink:href="#RobotoCondensed-Regular-20"/>
       <use x="154.052734375" xlink:href="#RobotoCondensed-Regular-31"/>
       <use x="202.880859375" xlink:href="#RobotoCondensed-Regular-32"/>
       <use x="251.708984375" xlink:href="#RobotoCondensed-Regular-20"/>
       <use x="273.486328125" xlink:href="#RobotoCondensed-Regular-32"/>
       <use x="322.314453125" xlink:href="#RobotoCondensed-Regular-30"/>
       <use x="371.240234375" xlink:href="#RobotoCondensed-Regular-31"/>
       <use x="420.068359375" xlink:href="#RobotoCondensed-Regular-34"/>
      </g>
     </g>
    </g>
    <g id="xtick_2">
     <g id="line2d_4">
      <path clip-path="url(#pc73cc5c586)" d="
M117.425 356.72
L117.425 32" style="fill:none;stroke:#ffffff;stroke-linecap:square;stroke-width:0.5;"/>
     </g>
     <g id="line2d_5">
      <g>
       <use style="fill:#555555;stroke:#555555;stroke-width:0.5;" x="117.424663763" xlink:href="#m98e6b566c6" y="356.719845853"/>
      </g>
     </g>
     <g id="line2d_6">
      <g>
       <use style="fill:#555555;stroke:#555555;stroke-width:0.5;" x="117.424663763" xlink:href="#m4ba1eff96d" y="32.0"/>
      </g>
     </g>
     <g id="text_2">
      <!-- Oct 14 2014 -->
      <g style="fill:#555555;" transform="translate(97.1028568139 418.43388666)rotate(-45.0)scale(0.14 -0.14)">
       <use xlink:href="#RobotoCondensed-Regular-4f"/>
       <use x="56.640625" xlink:href="#RobotoCondensed-Regular-63"/>
       <use x="101.611328125" xlink:href="#RobotoCondensed-Regular-74"/>
       <use x="132.275390625" xlink:href="#RobotoCondensed-Regular-20"/>
       <use x="154.052734375" xlink:href="#RobotoCondensed-Regular-31"/>
       <use x="202.880859375" xlink:href="#RobotoCondensed-Regular-34"/>
       <use x="251.708984375" xlink:href="#RobotoCondensed-Regular-20"/>
       <use x="273.486328125" xlink:href="#RobotoCondensed-Regular-32"/>
       <use x="322.314453125" xlink:href="#RobotoCondensed-Regular-30"/>
       <use x="371.240234375" xlink:href="#RobotoCondensed-Regular-31"/>
       <use x="420.068359375" xlink:href="#RobotoCondensed-Regular-34"/>
      </g>
     </g>
    </g>
    <g id="xtick_3">
     <g id="line2d_7">
      <path clip-path="url(#pc73cc5c586)" d="
M182.32 356.72
L182.32 32" style="fill:none;stroke:#ffffff;stroke-linecap:square;stroke-width:0.5;"/>
     </g>
     <g id="line2d_8">
      <g>
       <use style="fill:#555555;stroke:#555555;stroke-width:0.5;" x="182.319640029" xlink:href="#m98e6b566c6" y="356.719845853"/>
      </g>
     </g>
     <g id="line2d_9">
      <g>
       <use style="fill:#555555;stroke:#555555;stroke-width:0.5;" x="182.319640029" xlink:href="#m4ba1eff96d" y="32.0"/>
      </g>
     </g>
     <g id="text_3">
      <!-- Oct 16 2014 -->
      <defs>
       <path d="
M28.375 72.125
Q31.5938 72.125 34.5625 71.2812
Q37.5469 70.4531 39.9844 69.0469
L38.0938 61.7656
Q35.8906 63.0938 33.6406 63.7656
Q31.3906 64.4531 28.4219 64.4531
Q22.4688 64.4531 18.7812 58.7188
Q15.0938 52.9844 15.0938 43.3594
L15.0938 41.3594
Q17.5312 44.1406 20.8438 45.6719
Q24.1719 47.2188 28.125 47.2188
Q36.1875 47.2188 40.8438 40.5781
Q45.5156 33.9375 45.5156 23.5312
Q45.5156 12.7969 40.1406 5.875
Q34.7656 -1.03125 26.0781 -1.03125
Q16.9375 -1.03125 11.0781 6.4375
Q5.21875 13.9219 5.21875 27.25
L5.21875 42.6719
Q5.21875 55.9062 11.8125 64.0156
Q18.4062 72.125 28.375 72.125
M25.6875 39.9375
Q21.9219 39.9375 19.2031 38.125
Q16.5 36.3281 15.0938 33.2031
L15.0938 26.6562
Q15.0938 17.0938 18.1562 11.7656
Q21.2344 6.45312 26.0781 6.45312
Q30.4688 6.45312 33.0469 11.4062
Q35.6406 16.3594 35.6406 23.5312
Q35.6406 30.7656 32.9844 35.3438
Q30.3281 39.9375 25.6875 39.9375" id="RobotoCondensed-Regular-36"/>
      </defs>
      <g style="fill:#555555;" transform="translate(161.99783308 418.43388666)rotate(-45.0)scale(0.14 -0.14)">
       <use xlink:href="#RobotoCondensed-Regular-4f"/>
       <use x="56.640625" xlink:href="#RobotoCondensed-Regular-63"/>
       <use x="101.611328125" xlink:href="#RobotoCondensed-Regular-74"/>
       <use x="132.275390625" xlink:href="#RobotoCondensed-Regular-20"/>
       <use x="154.052734375" xlink:href="#RobotoCondensed-Regular-31"/>
       <use x="202.880859375" xlink:href="#RobotoCondensed-Regular-36"/>
       <use x="251.708984375" xlink:href="#RobotoCondensed-Regular-20"/>
       <use x="273.486328125" xlink:href="#RobotoCondensed-Regular-32"/>
       <use x="322.314453125" xlink:href="#RobotoCondensed-Regular-30"/>
       <use x="371.240234375" xlink:href="#RobotoCondensed-Regular-31"/>
       <use x="420.068359375" xlink:href="#RobotoCondensed-Regular-34"/>
      </g>
     </g>
    </g>
    <g id="xtick_4">
     <g id="line2d_10">
      <path clip-path="url(#pc73cc5c586)" d="
M247.215 356.72
L247.215 32" style="fill:none;stroke:#ffffff;stroke-linecap:square;stroke-width:0.5;"/>
     </g>
     <g id="line2d_11">
      <g>
       <use style="fill:#555555;stroke:#555555;stroke-width:0.5;" x="247.214616295" xlink:href="#m98e6b566c6" y="356.719845853"/>
      </g>
     </g>
     <g id="line2d_12">
      <g>
       <use style="fill:#555555;stroke:#555555;stroke-width:0.5;" x="247.214616295" xlink:href="#m4ba1eff96d" y="32.0"/>
      </g>
     </g>
     <g id="text_4">
      <!-- Oct 18 2014 -->
      <defs>
       <path d="
M42.9688 52.5469
Q42.9688 46.9219 40.2812 42.7031
Q37.5938 38.4844 33.0156 36.4219
Q38.2344 34.2344 41.3281 29.6562
Q44.4375 25.0938 44.4375 19.1406
Q44.4375 9.375 38.8906 4.17188
Q33.3438 -1.03125 24.4688 -1.03125
Q15.4375 -1.03125 9.89062 4.17188
Q4.34375 9.375 4.34375 19.1406
Q4.34375 25.1406 7.42188 29.7031
Q10.5 34.2812 15.7656 36.4688
Q11.1875 38.5312 8.54688 42.75
Q5.90625 46.9688 5.90625 52.5469
Q5.90625 61.8594 10.9844 66.9844
Q16.0625 72.125 24.3594 72.125
Q32.625 72.125 37.7969 66.9844
Q42.9688 61.8594 42.9688 52.5469
M34.5781 19.4844
Q34.5781 25.3438 31.6875 29.0312
Q28.8125 32.7188 24.3594 32.7188
Q19.875 32.7188 17.0625 29.0469
Q14.2656 25.3906 14.2656 19.4844
Q14.2656 13.375 17.0156 9.9375
Q19.7812 6.5 24.4688 6.5
Q28.9062 6.5 31.7344 9.95312
Q34.5781 13.4219 34.5781 19.4844
M33.0156 52.2969
Q33.0156 57.6719 30.6094 61.0781
Q28.2188 64.5 24.3594 64.5
Q20.4531 64.5 18.1406 61.2031
Q15.8281 57.9062 15.8281 52.2969
Q15.8281 46.7812 18.1719 43.5
Q20.5156 40.2344 24.4688 40.2344
Q28.3281 40.2344 30.6719 43.5
Q33.0156 46.7812 33.0156 52.2969" id="RobotoCondensed-Regular-38"/>
      </defs>
      <g style="fill:#555555;" transform="translate(226.892809345 418.43388666)rotate(-45.0)scale(0.14 -0.14)">
       <use xlink:href="#RobotoCondensed-Regular-4f"/>
       <use x="56.640625" xlink:href="#RobotoCondensed-Regular-63"/>
       <use x="101.611328125" xlink:href="#RobotoCondensed-Regular-74"/>
       <use x="132.275390625" xlink:href="#RobotoCondensed-Regular-20"/>
       <use x="154.052734375" xlink:href="#RobotoCondensed-Regular-31"/>
       <use x="202.880859375" xlink:href="#RobotoCondensed-Regular-38"/>
       <use x="251.708984375" xlink:href="#RobotoCondensed-Regular-20"/>
       <use x="273.486328125" xlink:href="#RobotoCondensed-Regular-32"/>
       <use x="322.314453125" xlink:href="#RobotoCondensed-Regular-30"/>
       <use x="371.240234375" xlink:href="#RobotoCondensed-Regular-31"/>
       <use x="420.068359375" xlink:href="#RobotoCondensed-Regular-34"/>
      </g>
     </g>
    </g>
    <g id="xtick_5">
     <g id="line2d_13">
      <path clip-path="url(#pc73cc5c586)" d="
M312.11 356.72
L312.11 32" style="fill:none;stroke:#ffffff;stroke-linecap:square;stroke-width:0.5;"/>
     </g>
     <g id="line2d_14">
      <g>
       <use style="fill:#555555;stroke:#555555;stroke-width:0.5;" x="312.109592561" xlink:href="#m98e6b566c6" y="356.719845853"/>
      </g>
     </g>
     <g id="line2d_15">
      <g>
       <use style="fill:#555555;stroke:#555555;stroke-width:0.5;" x="312.109592561" xlink:href="#m4ba1eff96d" y="32.0"/>
      </g>
     </g>
     <g id="text_5">
      <!-- Oct 20 2014 -->
      <g style="fill:#555555;" transform="translate(291.783145223 418.443167437)rotate(-45.0)scale(0.14 -0.14)">
       <use xlink:href="#RobotoCondensed-Regular-4f"/>
       <use x="56.640625" xlink:href="#RobotoCondensed-Regular-63"/>
       <use x="101.611328125" xlink:href="#RobotoCondensed-Regular-74"/>
       <use x="132.275390625" xlink:href="#RobotoCondensed-Regular-20"/>
       <use x="154.052734375" xlink:href="#RobotoCondensed-Regular-32"/>
       <use x="202.880859375" xlink:href="#RobotoCondensed-Regular-30"/>
       <use x="251.806640625" xlink:href="#RobotoCondensed-Regular-20"/>
       <use x="273.583984375" xlink:href="#RobotoCondensed-Regular-32"/>
       <use x="322.412109375" xlink:href="#RobotoCondensed-Regular-30"/>
       <use x="371.337890625" xlink:href="#RobotoCondensed-Regular-31"/>
       <use x="420.166015625" xlink:href="#RobotoCondensed-Regular-34"/>
      </g>
     </g>
    </g>
    <g id="xtick_6">
     <g id="line2d_16">
      <path clip-path="url(#pc73cc5c586)" d="
M377.005 356.72
L377.005 32" style="fill:none;stroke:#ffffff;stroke-linecap:square;stroke-width:0.5;"/>
     </g>
     <g id="line2d_17">
      <g>
       <use style="fill:#555555;stroke:#555555;stroke-width:0.5;" x="377.004568826" xlink:href="#m98e6b566c6" y="356.719845853"/>
      </g>
     </g>
     <g id="line2d_18">
      <g>
       <use style="fill:#555555;stroke:#555555;stroke-width:0.5;" x="377.004568826" xlink:href="#m4ba1eff96d" y="32.0"/>
      </g>
     </g>
     <g id="text_6">
      <!-- Oct 22 2014 -->
      <g style="fill:#555555;" transform="translate(356.682761877 418.43388666)rotate(-45.0)scale(0.14 -0.14)">
       <use xlink:href="#RobotoCondensed-Regular-4f"/>
       <use x="56.640625" xlink:href="#RobotoCondensed-Regular-63"/>
       <use x="101.611328125" xlink:href="#RobotoCondensed-Regular-74"/>
       <use x="132.275390625" xlink:href="#RobotoCondensed-Regular-20"/>
       <use x="154.052734375" xlink:href="#RobotoCondensed-Regular-32"/>
       <use x="202.880859375" xlink:href="#RobotoCondensed-Regular-32"/>
       <use x="251.708984375" xlink:href="#RobotoCondensed-Regular-20"/>
       <use x="273.486328125" xlink:href="#RobotoCondensed-Regular-32"/>
       <use x="322.314453125" xlink:href="#RobotoCondensed-Regular-30"/>
       <use x="371.240234375" xlink:href="#RobotoCondensed-Regular-31"/>
       <use x="420.068359375" xlink:href="#RobotoCondensed-Regular-34"/>
      </g>
     </g>
    </g>
    <g id="xtick_7">
     <g id="line2d_19">
      <path clip-path="url(#pc73cc5c586)" d="
M441.9 356.72
L441.9 32" style="fill:none;stroke:#ffffff;stroke-linecap:square;stroke-width:0.5;"/>
     </g>
     <g id="line2d_20">
      <g>
       <use style="fill:#555555;stroke:#555555;stroke-width:0.5;" x="441.899545092" xlink:href="#m98e6b566c6" y="356.719845853"/>
      </g>
     </g>
     <g id="line2d_21">
      <g>
       <use style="fill:#555555;stroke:#555555;stroke-width:0.5;" x="441.899545092" xlink:href="#m4ba1eff96d" y="32.0"/>
      </g>
     </g>
     <g id="text_7">
      <!-- Oct 24 2014 -->
      <g style="fill:#555555;" transform="translate(421.577738143 418.43388666)rotate(-45.0)scale(0.14 -0.14)">
       <use xlink:href="#RobotoCondensed-Regular-4f"/>
       <use x="56.640625" xlink:href="#RobotoCondensed-Regular-63"/>
       <use x="101.611328125" xlink:href="#RobotoCondensed-Regular-74"/>
       <use x="132.275390625" xlink:href="#RobotoCondensed-Regular-20"/>
       <use x="154.052734375" xlink:href="#RobotoCondensed-Regular-32"/>
       <use x="202.880859375" xlink:href="#RobotoCondensed-Regular-34"/>
       <use x="251.708984375" xlink:href="#RobotoCondensed-Regular-20"/>
       <use x="273.486328125" xlink:href="#RobotoCondensed-Regular-32"/>
       <use x="322.314453125" xlink:href="#RobotoCondensed-Regular-30"/>
       <use x="371.240234375" xlink:href="#RobotoCondensed-Regular-31"/>
       <use x="420.068359375" xlink:href="#RobotoCondensed-Regular-34"/>
      </g>
     </g>
    </g>
    <g id="xtick_8">
     <g id="line2d_22">
      <path clip-path="url(#pc73cc5c586)" d="
M506.795 356.72
L506.795 32" style="fill:none;stroke:#ffffff;stroke-linecap:square;stroke-width:0.5;"/>
     </g>
     <g id="line2d_23">
      <g>
       <use style="fill:#555555;stroke:#555555;stroke-width:0.5;" x="506.794521358" xlink:href="#m98e6b566c6" y="356.719845853"/>
      </g>
     </g>
     <g id="line2d_24">
      <g>
       <use style="fill:#555555;stroke:#555555;stroke-width:0.5;" x="506.794521358" xlink:href="#m4ba1eff96d" y="32.0"/>
      </g>
     </g>
     <g id="text_8">
      <!-- Oct 26 2014 -->
      <g style="fill:#555555;" transform="translate(486.472714408 418.43388666)rotate(-45.0)scale(0.14 -0.14)">
       <use xlink:href="#RobotoCondensed-Regular-4f"/>
       <use x="56.640625" xlink:href="#RobotoCondensed-Regular-63"/>
       <use x="101.611328125" xlink:href="#RobotoCondensed-Regular-74"/>
       <use x="132.275390625" xlink:href="#RobotoCondensed-Regular-20"/>
       <use x="154.052734375" xlink:href="#RobotoCondensed-Regular-32"/>
       <use x="202.880859375" xlink:href="#RobotoCondensed-Regular-36"/>
       <use x="251.708984375" xlink:href="#RobotoCondensed-Regular-20"/>
       <use x="273.486328125" xlink:href="#RobotoCondensed-Regular-32"/>
       <use x="322.314453125" xlink:href="#RobotoCondensed-Regular-30"/>
       <use x="371.240234375" xlink:href="#RobotoCondensed-Regular-31"/>
       <use x="420.068359375" xlink:href="#RobotoCondensed-Regular-34"/>
      </g>
     </g>
    </g>
   </g>
   <g id="matplotlib.axis_2">
    <g id="ytick_1">
     <g id="line2d_25">
      <path clip-path="url(#pc73cc5c586)" d="
M52.5297 356.72
L565.2 356.72" style="fill:none;stroke:#ffffff;stroke-linecap:square;stroke-width:0.5;"/>
     </g>
     <g id="line2d_26">
      <defs>
       <path d="
M0 0
L-4 0" id="m5191f13a99" style="stroke:#555555;stroke-width:0.5;"/>
      </defs>
      <g>
       <use style="fill:#555555;stroke:#555555;stroke-width:0.5;" x="52.5296875" xlink:href="#m5191f13a99" y="356.719845853"/>
      </g>
     </g>
     <g id="line2d_27">
      <defs>
       <path d="
M0 0
L4 0" id="mdd7d7fa58b" style="stroke:#555555;stroke-width:0.5;"/>
      </defs>
      <g>
       <use style="fill:#555555;stroke:#555555;stroke-width:0.5;" x="565.2" xlink:href="#mdd7d7fa58b" y="356.719845853"/>
      </g>
     </g>
     <g id="text_9">
      <!-- 0 -->
      <g style="fill:#555555;" transform="translate(38.9996875 360.630002103)scale(0.14 -0.14)">
       <use xlink:href="#RobotoCondensed-Regular-30"/>
      </g>
     </g>
    </g>
    <g id="ytick_2">
     <g id="line2d_28">
      <path clip-path="url(#pc73cc5c586)" d="
M52.5297 302.6
L565.2 302.6" style="fill:none;stroke:#ffffff;stroke-linecap:square;stroke-width:0.5;"/>
     </g>
     <g id="line2d_29">
      <g>
       <use style="fill:#555555;stroke:#555555;stroke-width:0.5;" x="52.5296875" xlink:href="#m5191f13a99" y="302.599871544"/>
      </g>
     </g>
     <g id="line2d_30">
      <g>
       <use style="fill:#555555;stroke:#555555;stroke-width:0.5;" x="565.2" xlink:href="#mdd7d7fa58b" y="302.599871544"/>
      </g>
     </g>
     <g id="text_10">
      <!-- 5 -->
      <defs>
       <path d="
M6.84375 31.9375
L10.25 71.0938
L42.1406 71.0938
L42.1406 62.9375
L18.5 62.9375
L16.6562 41.8438
Q18.4531 43.7031 20.8438 44.8906
Q23.25 46.0938 26.3125 46.1875
Q34.7188 46.2969 39.5 39.9688
Q44.2812 33.6406 44.2812 22.7031
Q44.2812 12.1094 39.2812 5.53125
Q34.2812 -1.03125 24.6562 -1.03125
Q16.6562 -1.03125 11.1875 4.04688
Q5.71875 9.125 5.90625 18.6562
L6 18.8906
L15.3281 19.0938
Q15.3281 13.0312 17.8906 9.76562
Q20.4531 6.5 24.6562 6.5
Q29.5 6.5 31.9375 10.7656
Q34.375 15.0469 34.375 22.6094
Q34.375 29.7344 31.8281 34.0469
Q29.2969 38.375 24.5625 38.375
Q20.3594 38.375 18.2812 36.5469
Q16.2188 34.7188 15.375 31.1094
z
" id="RobotoCondensed-Regular-35"/>
      </defs>
      <g style="fill:#555555;" transform="translate(39.1309375 306.510027794)scale(0.14 -0.14)">
       <use xlink:href="#RobotoCondensed-Regular-35"/>
      </g>
     </g>
    </g>
    <g id="ytick_3">
     <g id="line2d_31">
      <path clip-path="url(#pc73cc5c586)" d="
M52.5297 248.48
L565.2 248.48" style="fill:none;stroke:#ffffff;stroke-linecap:square;stroke-width:0.5;"/>
     </g>
     <g id="line2d_32">
      <g>
       <use style="fill:#555555;stroke:#555555;stroke-width:0.5;" x="52.5296875" xlink:href="#m5191f13a99" y="248.479897235"/>
      </g>
     </g>
     <g id="line2d_33">
      <g>
       <use style="fill:#555555;stroke:#555555;stroke-width:0.5;" x="565.2" xlink:href="#mdd7d7fa58b" y="248.479897235"/>
      </g>
     </g>
     <g id="text_11">
      <!-- 10 -->
      <g style="fill:#555555;" transform="translate(32.4853125 252.390053485)scale(0.14 -0.14)">
       <use xlink:href="#RobotoCondensed-Regular-31"/>
       <use x="48.828125" xlink:href="#RobotoCondensed-Regular-30"/>
      </g>
     </g>
    </g>
    <g id="ytick_4">
     <g id="line2d_34">
      <path clip-path="url(#pc73cc5c586)" d="
M52.5297 194.36
L565.2 194.36" style="fill:none;stroke:#ffffff;stroke-linecap:square;stroke-width:0.5;"/>
     </g>
     <g id="line2d_35">
      <g>
       <use style="fill:#555555;stroke:#555555;stroke-width:0.5;" x="52.5296875" xlink:href="#m5191f13a99" y="194.359922926"/>
      </g>
     </g>
     <g id="line2d_36">
      <g>
       <use style="fill:#555555;stroke:#555555;stroke-width:0.5;" x="565.2" xlink:href="#mdd7d7fa58b" y="194.359922926"/>
      </g>
     </g>
     <g id="text_12">
      <!-- 15 -->
      <g style="fill:#555555;" transform="translate(32.4721875 198.270079176)scale(0.14 -0.14)">
       <use xlink:href="#RobotoCondensed-Regular-31"/>
       <use x="48.828125" xlink:href="#RobotoCondensed-Regular-35"/>
      </g>
     </g>
    </g>
    <g id="ytick_5">
     <g id="line2d_37">
      <path clip-path="url(#pc73cc5c586)" d="
M52.5297 140.24
L565.2 140.24" style="fill:none;stroke:#ffffff;stroke-linecap:square;stroke-width:0.5;"/>
     </g>
     <g id="line2d_38">
      <g>
       <use style="fill:#555555;stroke:#555555;stroke-width:0.5;" x="52.5296875" xlink:href="#m5191f13a99" y="140.239948618"/>
      </g>
     </g>
     <g id="line2d_39">
      <g>
       <use style="fill:#555555;stroke:#555555;stroke-width:0.5;" x="565.2" xlink:href="#mdd7d7fa58b" y="140.239948618"/>
      </g>
     </g>
     <g id="text_13">
      <!-- 20 -->
      <g style="fill:#555555;" transform="translate(32.04125 144.150104868)scale(0.14 -0.14)">
       <use xlink:href="#RobotoCondensed-Regular-32"/>
       <use x="48.828125" xlink:href="#RobotoCondensed-Regular-30"/>
      </g>
     </g>
    </g>
    <g id="ytick_6">
     <g id="line2d_40">
      <path clip-path="url(#pc73cc5c586)" d="
M52.5297 86.12
L565.2 86.12" style="fill:none;stroke:#ffffff;stroke-linecap:square;stroke-width:0.5;"/>
     </g>
     <g id="line2d_41">
      <g>
       <use style="fill:#555555;stroke:#555555;stroke-width:0.5;" x="52.5296875" xlink:href="#m5191f13a99" y="86.1199743088"/>
      </g>
     </g>
     <g id="line2d_42">
      <g>
       <use style="fill:#555555;stroke:#555555;stroke-width:0.5;" x="565.2" xlink:href="#mdd7d7fa58b" y="86.1199743088"/>
      </g>
     </g>
     <g id="text_14">
      <!-- 25 -->
      <g style="fill:#555555;" transform="translate(32.028125 90.0301305588)scale(0.14 -0.14)">
       <use xlink:href="#RobotoCondensed-Regular-32"/>
       <use x="48.828125" xlink:href="#RobotoCondensed-Regular-35"/>
      </g>
     </g>
    </g>
    <g id="ytick_7">
     <g id="line2d_43">
      <path clip-path="url(#pc73cc5c586)" d="
M52.5297 32
L565.2 32" style="fill:none;stroke:#ffffff;stroke-linecap:square;stroke-width:0.5;"/>
     </g>
     <g id="line2d_44">
      <g>
       <use style="fill:#555555;stroke:#555555;stroke-width:0.5;" x="52.5296875" xlink:href="#m5191f13a99" y="32.0"/>
      </g>
     </g>
     <g id="line2d_45">
      <g>
       <use style="fill:#555555;stroke:#555555;stroke-width:0.5;" x="565.2" xlink:href="#mdd7d7fa58b" y="32.0"/>
      </g>
     </g>
     <g id="text_15">
      <!-- 30 -->
      <defs>
       <path d="
M16.6094 39.9375
L23.3906 39.9375
Q28.3281 39.9375 30.5938 43.2344
Q32.8594 46.5312 32.8594 52.1562
Q32.8594 57.9062 30.4844 61.2031
Q28.125 64.5 23.5781 64.5
Q19.4375 64.5 16.7656 61.2031
Q14.1094 57.9062 14.1094 52.5469
L4.6875 52.5469
L4.54688 52.8281
Q4.34375 61.0781 9.71875 66.5938
Q15.0938 72.125 23.3906 72.125
Q32.1719 72.125 37.4375 66.875
Q42.7188 61.625 42.7188 52.0469
Q42.7188 47.3125 40.2344 42.9844
Q37.75 38.6719 33.1562 36.4219
Q38.5312 34.4219 41.1094 29.9531
Q43.7031 25.4844 43.7031 19.625
Q43.7031 9.96875 38.0156 4.46875
Q32.3281 -1.03125 23.4375 -1.03125
Q15.1406 -1.03125 9.39062 4.21875
Q3.65625 9.46875 3.85938 18.8438
L4 19.1406
L13.4844 19.1406
Q13.4844 13.5312 16.2656 10.0156
Q19.0469 6.5 23.5781 6.5
Q28.375 6.5 31.0781 9.89062
Q33.7969 13.2812 33.7969 19.5312
Q33.7969 26.1719 31.2031 29.3125
Q28.6094 32.4688 23.3906 32.4688
L16.6094 32.4688
z
" id="RobotoCondensed-Regular-33"/>
      </defs>
      <g style="fill:#555555;" transform="translate(32.019375 35.91015625)scale(0.14 -0.14)">
       <use xlink:href="#RobotoCondensed-Regular-33"/>
       <use x="48.828125" xlink:href="#RobotoCondensed-Regular-30"/>
      </g>
     </g>
    </g>
    <g id="text_16">
     <!-- Número de tuits por día -->
     <defs>
      <path d="
M3.71875 29.7344
Q3.71875 40.2344 9.20312 47.0156
Q14.7031 53.8125 24.2656 53.8125
Q33.7969 53.8125 39.3125 47.0469
Q44.8281 40.2812 44.8281 29.7344
L44.8281 23
Q44.8281 12.4062 39.3281 5.6875
Q33.8438 -1.03125 24.3125 -1.03125
Q14.7031 -1.03125 9.20312 5.6875
Q3.71875 12.4062 3.71875 23
z

M13.625 23
Q13.625 15.7656 16.25 11.125
Q18.8906 6.5 24.3125 6.5
Q29.5938 6.5 32.25 11.125
Q34.9062 15.7656 34.9062 23
L34.9062 29.7344
Q34.9062 36.8594 32.25 41.5156
Q29.5938 46.1875 24.2656 46.1875
Q18.8906 46.1875 16.25 41.5469
Q13.625 36.9219 13.625 29.7344
z
" id="RobotoCondensed-Regular-6f"/>
      <path d="
M14.7031 52.8281
L15.2344 45.6562
Q17.3906 49.5625 20.7031 51.6875
Q24.0312 53.8125 28.4688 53.8125
Q32.8125 53.8125 35.9375 51.3906
Q39.0625 48.9688 40.6719 44.0469
Q42.7188 48.6406 46.1406 51.2188
Q49.5625 53.8125 54.25 53.8125
Q60.9844 53.8125 64.8594 48.2656
Q68.75 42.7188 68.75 31.3906
L68.75 0
L58.8438 0
L58.8438 31.4531
Q58.8438 39.5469 56.8281 42.8125
Q54.8281 46.0938 50.9219 46.0938
Q47.5625 46.0938 45.2812 43.5312
Q43.0156 40.9688 42 36.7188
Q41.9375 37.1094 42.0312 35.4688
Q42.1406 33.8438 42.1406 33.1094
L42.1406 0
L32.2812 0
L32.2812 31.4531
Q32.2812 39.3125 30.2188 42.7031
Q28.1719 46.0938 24.2656 46.0938
Q21.1406 46.0938 18.9375 44.3594
Q16.75 42.625 15.5312 39.5469
L15.5312 0
L5.67188 0
L5.67188 52.8281
z
" id="RobotoCondensed-Regular-6d"/>
      <path d="
M28.4219 44.4844
L23.7812 44.7344
Q20.7031 44.7344 18.6719 42.875
Q16.6562 41.0156 15.5781 37.6406
L15.5781 0
L5.67188 0
L5.67188 52.8281
L14.7031 52.8281
L15.4375 44.875
Q17.0938 49.0781 19.7812 51.4375
Q22.4688 53.8125 25.9844 53.8125
Q26.9531 53.8125 27.9688 53.6406
Q29 53.4688 29.5938 53.2188
z
" id="RobotoCondensed-Regular-72"/>
      <path d="
M16.2188 0
L6.29688 0
L6.29688 52.8281
L16.2188 52.8281
z

M14.75 72.1719
L25.7812 72.1719
L25.875 71.9219
L14.25 59.1875
L6.34375 59.1875
z
" id="RobotoCondensed-Regular-ed"/>
      <path d="
M44.7344 22.0156
Q44.7344 11.5781 40.1406 5.26562
Q35.5469 -1.03125 27.3906 -1.03125
Q23.5312 -1.03125 20.5938 0.484375
Q17.6719 2 15.5781 4.9375
L15.5781 -20.3125
L5.67188 -20.3125
L5.67188 52.8281
L14.5 52.8281
L15.1406 46.7812
Q17.2344 50.1406 20.2656 51.9688
Q23.2969 53.8125 27.2969 53.8125
Q35.5469 53.8125 40.1406 46.875
Q44.7344 39.9375 44.7344 28.5156
z

M34.8125 28.5156
Q34.8125 36.2812 32.25 41.1875
Q29.6875 46.0938 24.6094 46.0938
Q21.4375 46.0938 19.1875 44.2812
Q16.9375 42.4844 15.5781 39.3594
L15.5781 12.6406
Q16.8906 9.67188 19.1406 8.07812
Q21.3906 6.5 24.6562 6.5
Q29.7812 6.5 32.2969 10.7656
Q34.8125 15.0469 34.8125 22.0156
z
" id="RobotoCondensed-Regular-70"/>
      <path d="
M33.5469 7.07812
Q31.4531 3.17188 28.1719 1.0625
Q24.9062 -1.03125 20.6562 -1.03125
Q13.4844 -1.03125 9.46875 4.48438
Q5.46875 10.0156 5.46875 21.625
L5.46875 52.8281
L15.3281 52.8281
L15.3281 21.5312
Q15.3281 13.4219 17.25 10.0312
Q19.1875 6.64062 23.0469 6.64062
Q26.7031 6.64062 29.1719 8.34375
Q31.6406 10.0625 33.1094 13.2344
L33.1094 52.8281
L43.0156 52.8281
L43.0156 0
L34.1875 0
z

M27.625 72.1719
L38.6562 72.1719
L38.75 71.9219
L27.125 59.1875
L19.2188 59.1875
z
" id="RobotoCondensed-Regular-fa"/>
      <path d="
M30.2812 13.2344
Q30.2812 16.3125 28.25 18.4375
Q26.2188 20.5625 20.6094 23.0938
Q12.4531 26.2656 8.51562 29.8594
Q4.59375 33.4531 4.59375 39.1562
Q4.59375 45.2656 9.39062 49.5312
Q14.2031 53.8125 22.0156 53.8125
Q30.1719 53.8125 35 49.1875
Q39.8438 44.5781 39.6562 37.7031
L39.5469 37.4062
L30.0312 37.4062
Q30.0312 41.1562 27.9062 43.8594
Q25.7812 46.5781 22.0156 46.5781
Q18.3125 46.5781 16.2344 44.4844
Q14.1562 42.3906 14.1562 39.5469
Q14.1562 36.5312 15.9375 34.7656
Q17.7188 33.0156 23.6406 30.1719
Q31.9375 27.2031 35.9531 23.4062
Q39.9844 19.625 39.9844 13.7188
Q39.9844 7.17188 35 3.0625
Q30.0312 -1.03125 21.9219 -1.03125
Q13.1875 -1.03125 8.15625 3.92188
Q3.125 8.89062 3.375 15.5312
L3.46875 15.8281
L12.7031 15.8281
Q12.8906 10.6875 15.5312 8.42188
Q18.1719 6.15625 22.0781 6.15625
Q25.9219 6.15625 28.0938 8.125
Q30.2812 10.1094 30.2812 13.2344" id="RobotoCondensed-Regular-73"/>
      <path d="
M32.5625 0
Q32.0312 1.8125 31.6875 3.54688
Q31.3438 5.28125 31.25 7.03125
Q29.0469 3.46875 25.7188 1.21875
Q22.4062 -1.03125 18.3594 -1.03125
Q11.6719 -1.03125 7.89062 3.1875
Q4.10938 7.42188 4.10938 14.5
Q4.10938 22.0781 9.25 26.3906
Q14.4062 30.7188 23.7344 30.7188
L31.1094 30.7188
L31.1094 36.1406
Q31.1094 40.9688 28.9531 43.6719
Q26.8125 46.3906 22.8594 46.3906
Q19.2812 46.3906 17.1094 43.9375
Q14.9375 41.5 14.9375 37.8438
L5.51562 37.8906
L5.375 38.1875
Q5.125 44.2812 10.25 49.0469
Q15.375 53.8125 23.4844 53.8125
Q31.2969 53.8125 36.1562 49.1875
Q41.0156 44.5781 41.0156 36.0312
L41.0156 11.5312
Q41.0156 8.45312 41.375 5.59375
Q41.75 2.73438 42.5781 0
z

M20.6094 6.59375
Q24.0781 6.59375 26.9219 8.64062
Q29.7812 10.6875 31.1094 13.7656
L31.1094 24.5625
L23.5781 24.5625
Q19.0469 24.5625 16.5312 21.6562
Q14.0156 18.75 14.0156 14.5469
Q14.0156 10.9844 15.7188 8.78125
Q17.4375 6.59375 20.6094 6.59375" id="RobotoCondensed-Regular-61"/>
      <path d="
M33.5469 7.07812
Q31.4531 3.17188 28.1719 1.0625
Q24.9062 -1.03125 20.6562 -1.03125
Q13.4844 -1.03125 9.46875 4.48438
Q5.46875 10.0156 5.46875 21.625
L5.46875 52.8281
L15.3281 52.8281
L15.3281 21.5312
Q15.3281 13.4219 17.25 10.0312
Q19.1875 6.64062 23.0469 6.64062
Q26.7031 6.64062 29.1719 8.34375
Q31.6406 10.0625 33.1094 13.2344
L33.1094 52.8281
L43.0156 52.8281
L43.0156 0
L34.1875 0
z
" id="RobotoCondensed-Regular-75"/>
      <path d="
M24.75 -1.03125
Q15.3281 -1.03125 9.65625 5.51562
Q4 12.0625 4 22.2656
L4 29.9844
Q4 40.3281 9.54688 47.0625
Q15.0938 53.8125 23.6406 53.8125
Q32.625 53.8125 37.4531 47.6719
Q42.2812 41.5469 42.2812 31.2031
L42.2812 24.3594
L13.875 24.3594
L13.875 22.2656
Q13.875 15.4375 16.875 10.9688
Q19.875 6.5 25.3906 6.5
Q29.5 6.5 32.4219 7.78125
Q35.3594 9.07812 37.9844 11.5781
L41.1094 5.42188
Q38.625 2.59375 34.4219 0.78125
Q30.2188 -1.03125 24.75 -1.03125
M23.6406 46.1875
Q19.3438 46.1875 16.75 42.0156
Q14.1562 37.8438 13.875 31.4531
L32.4688 31.4531
L32.4688 33.4531
Q32.4688 39.0625 30.2188 42.625
Q27.9844 46.1875 23.6406 46.1875" id="RobotoCondensed-Regular-65"/>
      <path d="
M3.8125 25.7812
Q3.8125 38.4219 8.375 46.1094
Q12.9375 53.8125 21.2344 53.8125
Q24.9531 53.8125 27.8594 52.1406
Q30.7656 50.4844 32.8594 47.3594
L32.8594 76.1719
L42.7188 76.1719
L42.7188 0
L34.0781 0
L33.3438 6.0625
Q31.25 2.59375 28.1875 0.78125
Q25.1406 -1.03125 21.1875 -1.03125
Q12.9375 -1.03125 8.375 6
Q3.8125 13.0312 3.8125 24.75
z

M13.7188 24.75
Q13.7188 16.4062 16.1094 11.5156
Q18.5 6.64062 23.6875 6.64062
Q26.9062 6.64062 29.1719 8.39062
Q31.4531 10.1562 32.8594 13.3281
L32.8594 39.0156
Q31.4531 42.2812 29.1719 44.1875
Q26.9062 46.0938 23.7812 46.0938
Q18.6094 46.0938 16.1562 40.4688
Q13.7188 34.8594 13.7188 25.7812
z
" id="RobotoCondensed-Regular-64"/>
      <path d="
M53.9062 0
L44.0469 0
L17.0938 52.875
L16.7969 52.7812
L16.7969 0
L6.89062 0
L6.89062 71.0938
L16.7969 71.0938
L43.75 18.3594
L44.0469 18.4531
L44.0469 71.0938
L53.9062 71.0938
z
" id="RobotoCondensed-Regular-4e"/>
      <path d="
M16.2188 0
L6.29688 0
L6.29688 52.8281
L16.2188 52.8281
z

M16.2188 66.7031
L6.29688 66.7031
L6.29688 76.1719
L16.2188 76.1719
z
" id="RobotoCondensed-Regular-69"/>
     </defs>
     <g style="fill:#555555;" transform="translate(23.769375 266.999922926)rotate(-90.0)scale(0.16 -0.16)">
      <use xlink:href="#RobotoCondensed-Regular-4e"/>
      <use x="60.888671875" xlink:href="#RobotoCondensed-Regular-fa"/>
      <use x="109.47265625" xlink:href="#RobotoCondensed-Regular-6d"/>
      <use x="183.935546875" xlink:href="#RobotoCondensed-Regular-65"/>
      <use x="229.345703125" xlink:href="#RobotoCondensed-Regular-72"/>
      <use x="260.25390625" xlink:href="#RobotoCondensed-Regular-6f"/>
      <use x="308.837890625" xlink:href="#RobotoCondensed-Regular-20"/>
      <use x="330.615234375" xlink:href="#RobotoCondensed-Regular-64"/>
      <use x="379.19921875" xlink:href="#RobotoCondensed-Regular-65"/>
      <use x="424.609375" xlink:href="#RobotoCondensed-Regular-20"/>
      <use x="446.38671875" xlink:href="#RobotoCondensed-Regular-74"/>
      <use x="477.05078125" xlink:href="#RobotoCondensed-Regular-75"/>
      <use x="525.634765625" xlink:href="#RobotoCondensed-Regular-69"/>
      <use x="548.193359375" xlink:href="#RobotoCondensed-Regular-74"/>
      <use x="578.857421875" xlink:href="#RobotoCondensed-Regular-73"/>
      <use x="622.36328125" xlink:href="#RobotoCondensed-Regular-20"/>
      <use x="644.140625" xlink:href="#RobotoCondensed-Regular-70"/>
      <use x="692.724609375" xlink:href="#RobotoCondensed-Regular-6f"/>
      <use x="741.30859375" xlink:href="#RobotoCondensed-Regular-72"/>
      <use x="772.216796875" xlink:href="#RobotoCondensed-Regular-20"/>
      <use x="793.994140625" xlink:href="#RobotoCondensed-Regular-64"/>
      <use x="842.578125" xlink:href="#RobotoCondensed-Regular-ed"/>
      <use x="865.4296875" xlink:href="#RobotoCondensed-Regular-61"/>
     </g>
    </g>
   </g>
   <g id="patch_3">
    <path clip-path="url(#pc73cc5c586)" d="
M539.242 356.72
L565.2 356.72
L565.2 324.248
L539.242 324.248
z
" style="fill:#348abd;stroke:#eeeeee;stroke-linejoin:miter;stroke-width:0.5;"/>
   </g>
   <g id="patch_4">
    <path clip-path="url(#pc73cc5c586)" d="
M506.795 356.72
L532.753 356.72
L532.753 75.296
L506.795 75.296
z
" style="fill:#348abd;stroke:#eeeeee;stroke-linejoin:miter;stroke-width:0.5;"/>
   </g>
   <g id="patch_5">
    <path clip-path="url(#pc73cc5c586)" d="
M474.347 356.72
L500.305 356.72
L500.305 270.128
L474.347 270.128
z
" style="fill:#348abd;stroke:#eeeeee;stroke-linejoin:miter;stroke-width:0.5;"/>
   </g>
   <g id="patch_6">
    <path clip-path="url(#pc73cc5c586)" d="
M441.9 356.72
L467.858 356.72
L467.858 194.36
L441.9 194.36
z
" style="fill:#348abd;stroke:#eeeeee;stroke-linejoin:miter;stroke-width:0.5;"/>
   </g>
   <g id="patch_7">
    <path clip-path="url(#pc73cc5c586)" d="
M409.452 356.72
L435.41 356.72
L435.41 291.776
L409.452 291.776
z
" style="fill:#348abd;stroke:#eeeeee;stroke-linejoin:miter;stroke-width:0.5;"/>
   </g>
   <g id="patch_8">
    <path clip-path="url(#pc73cc5c586)" d="
M377.005 356.72
L402.963 356.72
L402.963 151.064
L377.005 151.064
z
" style="fill:#348abd;stroke:#eeeeee;stroke-linejoin:miter;stroke-width:0.5;"/>
   </g>
   <g id="patch_9">
    <path clip-path="url(#pc73cc5c586)" d="
M344.557 356.72
L370.515 356.72
L370.515 129.416
L344.557 129.416
z
" style="fill:#348abd;stroke:#eeeeee;stroke-linejoin:miter;stroke-width:0.5;"/>
   </g>
   <g id="patch_10">
    <path clip-path="url(#pc73cc5c586)" d="
M312.11 356.72
L338.068 356.72
L338.068 86.12
L312.11 86.12
z
" style="fill:#348abd;stroke:#eeeeee;stroke-linejoin:miter;stroke-width:0.5;"/>
   </g>
   <g id="patch_11">
    <path clip-path="url(#pc73cc5c586)" d="
M279.662 356.72
L305.62 356.72
L305.62 42.824
L279.662 42.824
z
" style="fill:#348abd;stroke:#eeeeee;stroke-linejoin:miter;stroke-width:0.5;"/>
   </g>
   <g id="patch_12">
    <path clip-path="url(#pc73cc5c586)" d="
M247.215 356.72
L273.173 356.72
L273.173 161.888
L247.215 161.888
z
" style="fill:#348abd;stroke:#eeeeee;stroke-linejoin:miter;stroke-width:0.5;"/>
   </g>
   <g id="patch_13">
    <path clip-path="url(#pc73cc5c586)" d="
M214.767 356.72
L240.725 356.72
L240.725 194.36
L214.767 194.36
z
" style="fill:#348abd;stroke:#eeeeee;stroke-linejoin:miter;stroke-width:0.5;"/>
   </g>
   <g id="patch_14">
    <path clip-path="url(#pc73cc5c586)" d="
M182.32 356.72
L208.278 356.72
L208.278 86.12
L182.32 86.12
z
" style="fill:#348abd;stroke:#eeeeee;stroke-linejoin:miter;stroke-width:0.5;"/>
   </g>
   <g id="patch_15">
    <path clip-path="url(#pc73cc5c586)" d="
M149.872 356.72
L175.83 356.72
L175.83 194.36
L149.872 194.36
z
" style="fill:#348abd;stroke:#eeeeee;stroke-linejoin:miter;stroke-width:0.5;"/>
   </g>
   <g id="patch_16">
    <path clip-path="url(#pc73cc5c586)" d="
M117.425 356.72
L143.383 356.72
L143.383 194.36
L117.425 194.36
z
" style="fill:#348abd;stroke:#eeeeee;stroke-linejoin:miter;stroke-width:0.5;"/>
   </g>
   <g id="patch_17">
    <path clip-path="url(#pc73cc5c586)" d="
M84.9772 356.72
L110.935 356.72
L110.935 118.592
L84.9772 118.592
z
" style="fill:#348abd;stroke:#eeeeee;stroke-linejoin:miter;stroke-width:0.5;"/>
   </g>
   <g id="patch_18">
    <path clip-path="url(#pc73cc5c586)" d="
M52.5297 356.72
L78.4877 356.72
L78.4877 345.896
L52.5297 345.896
z
" style="fill:#348abd;stroke:#eeeeee;stroke-linejoin:miter;stroke-width:0.5;"/>
   </g>
   <g id="patch_19">
    <path d="
M565.2 356.72
L565.2 32" style="fill:none;stroke:#ffffff;stroke-linecap:square;stroke-linejoin:miter;"/>
   </g>
   <g id="patch_20">
    <path d="
M52.5297 32
L565.2 32" style="fill:none;stroke:#ffffff;stroke-linecap:square;stroke-linejoin:miter;"/>
   </g>
   <g id="patch_21">
    <path d="
M52.5297 356.72
L565.2 356.72" style="fill:none;stroke:#ffffff;stroke-linecap:square;stroke-linejoin:miter;"/>
   </g>
   <g id="patch_22">
    <path d="
M52.5297 356.72
L52.5297 32" style="fill:none;stroke:#ffffff;stroke-linecap:square;stroke-linejoin:miter;"/>
   </g>
   <g id="text_17">
    <!-- Reportes de incendio desde la cuenta @bomberos -->
    <defs>
     <path d="
M16.7969 30.6094
L16.7969 0
L6.89062 0
L6.89062 71.0469
L29 71.0469
Q39.1094 71.0469 44.625 65.8125
Q50.1406 60.5938 50.1406 50.8281
Q50.1406 45.2656 47.5781 41.1094
Q45.0156 36.9688 40.1875 34.625
Q45.5156 32.8125 47.875 28.4844
Q50.25 24.1719 50.25 17.8281
L50.25 11.625
Q50.25 8.34375 50.9062 5.53125
Q51.5625 2.73438 53.1719 1.125
L53.1719 0
L42.9688 0
Q41.3125 1.60938 40.8438 4.85938
Q40.375 8.10938 40.375 11.7188
L40.375 17.7188
Q40.375 23.6875 37.6719 27.1406
Q34.9688 30.6094 30.2188 30.6094
z

M16.7969 38.1875
L28.5156 38.1875
Q34.5156 38.1875 37.375 41.4219
Q40.2344 44.6719 40.2344 50.6406
Q40.2344 56.7344 37.4531 60.1094
Q34.6719 63.4844 29 63.4844
L16.7969 63.4844
z
" id="RobotoCondensed-Regular-52"/>
     <path d="
M16.2188 0
L6.29688 0
L6.29688 76.1719
L16.2188 76.1719
z
" id="RobotoCondensed-Regular-6c"/>
     <path d="
M75.2969 24.8594
Q74.9062 14.3125 69.9375 6.64062
Q64.9844 -1.03125 55.2188 -1.03125
Q51.8594 -1.03125 49.4688 1.17188
Q47.0781 3.375 46.1406 7.375
Q44.0469 3.17188 41.0625 1.09375
Q38.0938 -0.984375 34.125 -0.984375
Q28.3281 -0.984375 25.2188 4.875
Q22.125 10.75 22.9062 20.3125
Q23.9219 32.7656 29 40.3125
Q34.0781 47.8594 41.3125 47.8594
Q46 47.8594 48.8438 46.5625
Q51.7031 45.2656 55.125 42.625
L54.9844 42.4844
L55.2188 42.4844
L52.9844 14.3125
Q52.6406 8.6875 53.8125 6.60938
Q54.9844 4.54688 56.8906 4.54688
Q62.1562 4.54688 65.2969 10.25
Q68.4531 15.9688 68.8438 24.8594
Q69.5781 43.2188 62.7656 53.4688
Q55.9531 63.7188 41.6094 63.7188
Q28.3281 63.7188 20.1875 52.625
Q12.0625 41.5469 11.4688 23.3438
Q10.6875 5.28125 17.9375 -5.48438
Q25.2031 -16.2656 38.7188 -16.2656
Q42.4844 -16.2656 46.3906 -15.2344
Q50.2969 -14.2031 53.0312 -12.5469
L54.5938 -17.7812
Q51.7031 -19.8281 47.2344 -20.9688
Q42.7812 -22.125 38.5312 -22.125
Q21.7812 -22.125 12.6719 -9.9375
Q3.5625 2.25 4.34375 23.3438
Q5.125 44.0938 15.2344 56.7656
Q25.3438 69.4375 41.7969 69.4375
Q58.4062 69.4375 67.1875 57.4688
Q75.9844 45.5156 75.2969 24.8594
M31.1094 20.3125
Q30.6094 13.375 32 9.48438
Q33.4062 5.60938 36.5312 5.60938
Q39.2656 5.60938 41.5 7.125
Q43.75 8.64062 45.5625 12.5938
Q45.5625 12.9375 45.5625 13.2969
Q45.5625 13.6719 45.6562 14.3125
L47.7031 40.4844
Q46.5312 41.0156 45.3125 41.3281
Q44.0938 41.6562 42.8281 41.6562
Q37.6406 41.6562 34.7812 36.3281
Q31.9375 31 31.1094 20.3125" id="RobotoCondensed-Regular-40"/>
     <path d="
M14.6562 52.8281
L15.1875 45.0156
Q17.3906 49.1719 20.75 51.4844
Q24.125 53.8125 28.375 53.8125
Q35.2969 53.8125 39.1562 48.6875
Q43.0156 43.5625 43.0156 32.7656
L43.0156 0
L33.1094 0
L33.1094 32.6719
Q33.1094 40.0469 31 43.0625
Q28.9062 46.0938 24.6562 46.0938
Q21.625 46.0938 19.2812 44.2031
Q16.9375 42.3281 15.4844 39.1094
L15.4844 0
L5.5625 0
L5.5625 52.8281
z
" id="RobotoCondensed-Regular-6e"/>
     <path d="
M44.7812 22.0156
Q44.7812 11.5312 40.2344 5.25
Q35.6875 -1.03125 27.4375 -1.03125
Q23.2969 -1.03125 20.1875 0.796875
Q17.0938 2.64062 14.9844 6.20312
L14.2656 0
L5.67188 0
L5.67188 76.1719
L15.5781 76.1719
L15.5781 47.2656
Q17.625 50.4375 20.5469 52.125
Q23.4844 53.8125 27.3438 53.8125
Q35.6875 53.8125 40.2344 47.0938
Q44.7812 40.375 44.7812 29.2031
z

M34.9062 29.2031
Q34.9062 36.8125 32.4844 41.4531
Q30.0781 46.0938 24.8594 46.0938
Q21.5312 46.0938 19.2031 44.1094
Q16.8906 42.1406 15.5781 38.8125
L15.5781 13.4219
Q16.8906 10.2031 19.2344 8.42188
Q21.5781 6.64062 24.9531 6.64062
Q30.1719 6.64062 32.5312 10.7812
Q34.9062 14.9375 34.9062 22.0156
z
" id="RobotoCondensed-Regular-62"/>
    </defs>
    <g transform="translate(96.05265625 27.0)scale(0.22 -0.22)">
     <use xlink:href="#RobotoCondensed-Regular-52"/>
     <use x="56.73828125" xlink:href="#RobotoCondensed-Regular-65"/>
     <use x="102.1484375" xlink:href="#RobotoCondensed-Regular-70"/>
     <use x="150.732421875" xlink:href="#RobotoCondensed-Regular-6f"/>
     <use x="199.31640625" xlink:href="#RobotoCondensed-Regular-72"/>
     <use x="230.224609375" xlink:href="#RobotoCondensed-Regular-74"/>
     <use x="260.888671875" xlink:href="#RobotoCondensed-Regular-65"/>
     <use x="306.298828125" xlink:href="#RobotoCondensed-Regular-73"/>
     <use x="349.8046875" xlink:href="#RobotoCondensed-Regular-20"/>
     <use x="371.58203125" xlink:href="#RobotoCondensed-Regular-64"/>
     <use x="420.166015625" xlink:href="#RobotoCondensed-Regular-65"/>
     <use x="465.576171875" xlink:href="#RobotoCondensed-Regular-20"/>
     <use x="487.353515625" xlink:href="#RobotoCondensed-Regular-69"/>
     <use x="509.912109375" xlink:href="#RobotoCondensed-Regular-6e"/>
     <use x="558.49609375" xlink:href="#RobotoCondensed-Regular-63"/>
     <use x="603.466796875" xlink:href="#RobotoCondensed-Regular-65"/>
     <use x="648.876953125" xlink:href="#RobotoCondensed-Regular-6e"/>
     <use x="697.4609375" xlink:href="#RobotoCondensed-Regular-64"/>
     <use x="746.044921875" xlink:href="#RobotoCondensed-Regular-69"/>
     <use x="768.603515625" xlink:href="#RobotoCondensed-Regular-6f"/>
     <use x="817.1875" xlink:href="#RobotoCondensed-Regular-20"/>
     <use x="838.96484375" xlink:href="#RobotoCondensed-Regular-64"/>
     <use x="887.548828125" xlink:href="#RobotoCondensed-Regular-65"/>
     <use x="932.958984375" xlink:href="#RobotoCondensed-Regular-73"/>
     <use x="976.46484375" xlink:href="#RobotoCondensed-Regular-64"/>
     <use x="1025.048828125" xlink:href="#RobotoCondensed-Regular-65"/>
     <use x="1070.458984375" xlink:href="#RobotoCondensed-Regular-20"/>
     <use x="1092.236328125" xlink:href="#RobotoCondensed-Regular-6c"/>
     <use x="1114.794921875" xlink:href="#RobotoCondensed-Regular-61"/>
     <use x="1161.42578125" xlink:href="#RobotoCondensed-Regular-20"/>
     <use x="1183.203125" xlink:href="#RobotoCondensed-Regular-63"/>
     <use x="1228.173828125" xlink:href="#RobotoCondensed-Regular-75"/>
     <use x="1276.7578125" xlink:href="#RobotoCondensed-Regular-65"/>
     <use x="1322.16796875" xlink:href="#RobotoCondensed-Regular-6e"/>
     <use x="1370.751953125" xlink:href="#RobotoCondensed-Regular-74"/>
     <use x="1401.416015625" xlink:href="#RobotoCondensed-Regular-61"/>
     <use x="1448.046875" xlink:href="#RobotoCondensed-Regular-20"/>
     <use x="1469.82421875" xlink:href="#RobotoCondensed-Regular-40"/>
     <use x="1549.658203125" xlink:href="#RobotoCondensed-Regular-62"/>
     <use x="1598.2421875" xlink:href="#RobotoCondensed-Regular-6f"/>
     <use x="1646.826171875" xlink:href="#RobotoCondensed-Regular-6d"/>
     <use x="1721.2890625" xlink:href="#RobotoCondensed-Regular-62"/>
     <use x="1769.873046875" xlink:href="#RobotoCondensed-Regular-65"/>
     <use x="1815.283203125" xlink:href="#RobotoCondensed-Regular-72"/>
     <use x="1846.19140625" xlink:href="#RobotoCondensed-Regular-6f"/>
     <use x="1894.775390625" xlink:href="#RobotoCondensed-Regular-73"/>
    </g>
   </g>
  </g>
 </g>
 <defs>
  <clipPath id="pc73cc5c586">
   <rect height="324.719845853" width="512.6703125" x="52.5296875" y="32.0"/>
  </clipPath>
 </defs>
</svg>
