<?xml version="1.0" encoding="utf-8" standalone="no"?>
<!DOCTYPE svg PUBLIC "-//W3C//DTD SVG 1.1//EN"
  "http://www.w3.org/Graphics/SVG/1.1/DTD/svg11.dtd">
<!-- Created with matplotlib (http://matplotlib.org/) -->
<svg height="396pt" version="1.1" viewBox="0 0 576 396" width="576pt" xmlns="http://www.w3.org/2000/svg" xmlns:xlink="http://www.w3.org/1999/xlink">
 <defs>
  <style type="text/css">
*{stroke-linecap:butt;stroke-linejoin:round;}
  </style>
 </defs>
 <g id="figure_1">
  <g id="patch_1">
   <path d="
M0 396
L576 396
L576 0
L0 0
z
" style="fill:#ffffff;"/>
  </g>
  <g id="axes_1">
   <g id="patch_2">
    <path d="
M47.0241 330.09
L558.54 330.09
L558.54 26.96
L47.0241 26.96
z
" style="fill:#eaeaf2;"/>
   </g>
   <g id="matplotlib.axis_1">
    <g id="xtick_1">
     <g id="line2d_1">
      <path clip-path="url(#p194bd78a20)" d="
M47.0241 330.09
L47.0241 26.96" style="fill:none;stroke:#ffffff;stroke-linecap:round;"/>
     </g>
     <g id="text_1">
      <!-- 12 Oct -->
      <defs>
       <path d="
M40.4375 19
L49.0781 17.875
Q47.6562 8.9375 41.8125 3.875
Q35.9844 -1.17188 27.4844 -1.17188
Q16.8438 -1.17188 10.375 5.78125
Q3.90625 12.75 3.90625 25.7344
Q3.90625 34.125 6.6875 40.4219
Q9.46875 46.7344 15.1562 49.875
Q20.8438 53.0312 27.5469 53.0312
Q35.9844 53.0312 41.3594 48.75
Q46.7344 44.4844 48.25 36.625
L39.7031 35.2969
Q38.4844 40.5312 35.375 43.1562
Q32.2812 45.7969 27.875 45.7969
Q21.2344 45.7969 17.0781 41.0312
Q12.9375 36.2812 12.9375 25.9844
Q12.9375 15.5312 16.9375 10.7969
Q20.9531 6.0625 27.3906 6.0625
Q32.5625 6.0625 36.0312 9.23438
Q39.5 12.4062 40.4375 19" id="ArialMT-63"/>
       <path id="ArialMT-20"/>
       <path d="
M4.82812 34.8594
Q4.82812 52.6875 14.3906 62.7656
Q23.9688 72.8594 39.1094 72.8594
Q49.0312 72.8594 56.9844 68.1094
Q64.9375 63.375 69.1094 54.9062
Q73.2969 46.4375 73.2969 35.6875
Q73.2969 24.8125 68.8906 16.2188
Q64.5 7.625 56.4375 3.20312
Q48.3906 -1.21875 39.0625 -1.21875
Q28.9531 -1.21875 20.9844 3.65625
Q13.0312 8.54688 8.92188 16.9844
Q4.82812 25.4375 4.82812 34.8594
M14.5938 34.7188
Q14.5938 21.7812 21.5469 14.3281
Q28.5156 6.89062 39.0156 6.89062
Q49.7031 6.89062 56.6094 14.4062
Q63.5312 21.9219 63.5312 35.75
Q63.5312 44.4844 60.5781 51
Q57.625 57.5156 51.9219 61.1094
Q46.2344 64.7031 39.1562 64.7031
Q29.1094 64.7031 21.8438 57.7812
Q14.5938 50.875 14.5938 34.7188" id="ArialMT-4f"/>
       <path d="
M50.3438 8.45312
L50.3438 0
L3.03125 0
Q2.9375 3.17188 4.04688 6.10938
Q5.85938 10.9375 9.82812 15.625
Q13.8125 20.3125 21.3438 26.4688
Q33.0156 36.0312 37.1094 41.625
Q41.2188 47.2188 41.2188 52.2031
Q41.2188 57.4219 37.4688 61
Q33.7344 64.5938 27.7344 64.5938
Q21.3906 64.5938 17.5781 60.7812
Q13.7656 56.9844 13.7188 50.25
L4.6875 51.1719
Q5.60938 61.2812 11.6562 66.5781
Q17.7188 71.875 27.9375 71.875
Q38.2344 71.875 44.2344 66.1562
Q50.25 60.4531 50.25 52
Q50.25 47.7031 48.4844 43.5469
Q46.7344 39.4062 42.6562 34.8125
Q38.5781 30.2188 29.1094 22.2188
Q21.1875 15.5781 18.9375 13.2031
Q16.7031 10.8438 15.2344 8.45312
z
" id="ArialMT-32"/>
       <path d="
M25.7812 7.85938
L27.0469 0.09375
Q23.3438 -0.6875 20.4062 -0.6875
Q15.625 -0.6875 12.9844 0.828125
Q10.3594 2.34375 9.28125 4.8125
Q8.20312 7.28125 8.20312 15.1875
L8.20312 45.0156
L1.76562 45.0156
L1.76562 51.8594
L8.20312 51.8594
L8.20312 64.7031
L16.9375 69.9688
L16.9375 51.8594
L25.7812 51.8594
L25.7812 45.0156
L16.9375 45.0156
L16.9375 14.7031
Q16.9375 10.9375 17.4062 9.85938
Q17.875 8.79688 18.9219 8.15625
Q19.9688 7.51562 21.9219 7.51562
Q23.3906 7.51562 25.7812 7.85938" id="ArialMT-74"/>
       <path d="
M37.25 0
L28.4688 0
L28.4688 56
Q25.2969 52.9844 20.1406 49.9531
Q14.9844 46.9219 10.8906 45.4062
L10.8906 53.9062
Q18.2656 57.375 23.7812 62.2969
Q29.2969 67.2344 31.5938 71.875
L37.25 71.875
z
" id="ArialMT-31"/>
      </defs>
      <g style="fill:#262626;" transform="translate(49.60921875 366.4728125)rotate(-90.0)scale(0.1 -0.1)">
       <use xlink:href="#ArialMT-31"/>
       <use x="55.615234375" xlink:href="#ArialMT-32"/>
       <use x="111.23046875" xlink:href="#ArialMT-20"/>
       <use x="139.013671875" xlink:href="#ArialMT-4f"/>
       <use x="216.796875" xlink:href="#ArialMT-63"/>
       <use x="266.796875" xlink:href="#ArialMT-74"/>
      </g>
     </g>
    </g>
    <g id="xtick_2">
     <g id="line2d_2">
      <path clip-path="url(#p194bd78a20)" d="
M132.277 330.09
L132.277 26.96" style="fill:none;stroke:#ffffff;stroke-linecap:round;"/>
     </g>
     <g id="text_2">
      <!-- 13 Oct -->
      <defs>
       <path d="
M4.20312 18.8906
L12.9844 20.0625
Q14.5 12.5938 18.1406 9.29688
Q21.7812 6 27 6
Q33.2031 6 37.4688 10.2969
Q41.75 14.5938 41.75 20.9531
Q41.75 27 37.7969 30.9219
Q33.8438 34.8594 27.7344 34.8594
Q25.25 34.8594 21.5312 33.8906
L22.5156 41.6094
Q23.3906 41.5 23.9219 41.5
Q29.5469 41.5 34.0312 44.4219
Q38.5312 47.3594 38.5312 53.4688
Q38.5312 58.2969 35.25 61.4688
Q31.9844 64.6562 26.8125 64.6562
Q21.6875 64.6562 18.2656 61.4219
Q14.8438 58.2031 13.875 51.7656
L5.07812 53.3281
Q6.6875 62.1562 12.3906 67.0156
Q18.1094 71.875 26.6094 71.875
Q32.4688 71.875 37.3906 69.3594
Q42.3281 66.8438 44.9375 62.5
Q47.5625 58.1562 47.5625 53.2656
Q47.5625 48.6406 45.0625 44.8281
Q42.5781 41.0156 37.7031 38.7656
Q44.0469 37.3125 47.5625 32.6875
Q51.0781 28.0781 51.0781 21.1406
Q51.0781 11.7656 44.2344 5.25
Q37.4062 -1.26562 26.9531 -1.26562
Q17.5312 -1.26562 11.2969 4.34375
Q5.07812 9.96875 4.20312 18.8906" id="ArialMT-33"/>
      </defs>
      <g style="fill:#262626;" transform="translate(134.861875 366.4728125)rotate(-90.0)scale(0.1 -0.1)">
       <use xlink:href="#ArialMT-31"/>
       <use x="55.615234375" xlink:href="#ArialMT-33"/>
       <use x="111.23046875" xlink:href="#ArialMT-20"/>
       <use x="139.013671875" xlink:href="#ArialMT-4f"/>
       <use x="216.796875" xlink:href="#ArialMT-63"/>
       <use x="266.796875" xlink:href="#ArialMT-74"/>
      </g>
     </g>
    </g>
    <g id="xtick_3">
     <g id="line2d_3">
      <path clip-path="url(#p194bd78a20)" d="
M217.529 330.09
L217.529 26.96" style="fill:none;stroke:#ffffff;stroke-linecap:round;"/>
     </g>
     <g id="text_3">
      <!-- 14 Oct -->
      <defs>
       <path d="
M32.3281 0
L32.3281 17.1406
L1.26562 17.1406
L1.26562 25.2031
L33.9375 71.5781
L41.1094 71.5781
L41.1094 25.2031
L50.7812 25.2031
L50.7812 17.1406
L41.1094 17.1406
L41.1094 0
z

M32.3281 25.2031
L32.3281 57.4688
L9.90625 25.2031
z
" id="ArialMT-34"/>
      </defs>
      <g style="fill:#262626;" transform="translate(220.11453125 366.4728125)rotate(-90.0)scale(0.1 -0.1)">
       <use xlink:href="#ArialMT-31"/>
       <use x="55.615234375" xlink:href="#ArialMT-34"/>
       <use x="111.23046875" xlink:href="#ArialMT-20"/>
       <use x="139.013671875" xlink:href="#ArialMT-4f"/>
       <use x="216.796875" xlink:href="#ArialMT-63"/>
       <use x="266.796875" xlink:href="#ArialMT-74"/>
      </g>
     </g>
    </g>
    <g id="xtick_4">
     <g id="line2d_4">
      <path clip-path="url(#p194bd78a20)" d="
M302.782 330.09
L302.782 26.96" style="fill:none;stroke:#ffffff;stroke-linecap:round;"/>
     </g>
     <g id="text_4">
      <!-- 15 Oct -->
      <defs>
       <path d="
M4.15625 18.75
L13.375 19.5312
Q14.4062 12.7969 18.1406 9.39062
Q21.875 6 27.1562 6
Q33.5 6 37.8906 10.7812
Q42.2812 15.5781 42.2812 23.4844
Q42.2812 31 38.0625 35.3438
Q33.8438 39.7031 27 39.7031
Q22.75 39.7031 19.3281 37.7656
Q15.9219 35.8438 13.9688 32.7656
L5.71875 33.8438
L12.6406 70.6094
L48.25 70.6094
L48.25 62.2031
L19.6719 62.2031
L15.8281 42.9688
Q22.2656 47.4688 29.3438 47.4688
Q38.7188 47.4688 45.1562 40.9688
Q51.6094 34.4688 51.6094 24.2656
Q51.6094 14.5469 45.9531 7.46875
Q39.0625 -1.21875 27.1562 -1.21875
Q17.3906 -1.21875 11.2031 4.25
Q5.03125 9.71875 4.15625 18.75" id="ArialMT-35"/>
      </defs>
      <g style="fill:#262626;" transform="translate(305.3671875 366.4728125)rotate(-90.0)scale(0.1 -0.1)">
       <use xlink:href="#ArialMT-31"/>
       <use x="55.615234375" xlink:href="#ArialMT-35"/>
       <use x="111.23046875" xlink:href="#ArialMT-20"/>
       <use x="139.013671875" xlink:href="#ArialMT-4f"/>
       <use x="216.796875" xlink:href="#ArialMT-63"/>
       <use x="266.796875" xlink:href="#ArialMT-74"/>
      </g>
     </g>
    </g>
    <g id="xtick_5">
     <g id="line2d_5">
      <path clip-path="url(#p194bd78a20)" d="
M388.035 330.09
L388.035 26.96" style="fill:none;stroke:#ffffff;stroke-linecap:round;"/>
     </g>
     <g id="text_5">
      <!-- 16 Oct -->
      <defs>
       <path d="
M49.75 54.0469
L41.0156 53.375
Q39.8438 58.5469 37.7031 60.8906
Q34.125 64.6562 28.9062 64.6562
Q24.7031 64.6562 21.5312 62.3125
Q17.3906 59.2812 14.9844 53.4688
Q12.5938 47.6562 12.5 36.9219
Q15.6719 41.75 20.2656 44.0938
Q24.8594 46.4375 29.8906 46.4375
Q38.6719 46.4375 44.8438 39.9688
Q51.0312 33.5 51.0312 23.25
Q51.0312 16.5 48.125 10.7188
Q45.2188 4.9375 40.1406 1.85938
Q35.0625 -1.21875 28.6094 -1.21875
Q17.625 -1.21875 10.6875 6.85938
Q3.76562 14.9375 3.76562 33.5
Q3.76562 54.25 11.4219 63.6719
Q18.1094 71.875 29.4375 71.875
Q37.8906 71.875 43.2812 67.1406
Q48.6875 62.4062 49.75 54.0469
M13.875 23.1875
Q13.875 18.6562 15.7969 14.5
Q17.7188 10.3594 21.1875 8.17188
Q24.6562 6 28.4688 6
Q34.0312 6 38.0312 10.4844
Q42.0469 14.9844 42.0469 22.7031
Q42.0469 30.125 38.0781 34.3906
Q34.125 38.6719 28.125 38.6719
Q22.1719 38.6719 18.0156 34.3906
Q13.875 30.125 13.875 23.1875" id="ArialMT-36"/>
      </defs>
      <g style="fill:#262626;" transform="translate(390.61984375 366.4728125)rotate(-90.0)scale(0.1 -0.1)">
       <use xlink:href="#ArialMT-31"/>
       <use x="55.615234375" xlink:href="#ArialMT-36"/>
       <use x="111.23046875" xlink:href="#ArialMT-20"/>
       <use x="139.013671875" xlink:href="#ArialMT-4f"/>
       <use x="216.796875" xlink:href="#ArialMT-63"/>
       <use x="266.796875" xlink:href="#ArialMT-74"/>
      </g>
     </g>
    </g>
    <g id="xtick_6">
     <g id="line2d_6">
      <path clip-path="url(#p194bd78a20)" d="
M473.287 330.09
L473.287 26.96" style="fill:none;stroke:#ffffff;stroke-linecap:round;"/>
     </g>
     <g id="text_6">
      <!-- 17 Oct -->
      <defs>
       <path d="
M4.73438 62.2031
L4.73438 70.6562
L51.0781 70.6562
L51.0781 63.8125
Q44.2344 56.5469 37.5156 44.4844
Q30.8125 32.4219 27.1562 19.6719
Q24.5156 10.6875 23.7812 0
L14.75 0
Q14.8906 8.45312 18.0625 20.4062
Q21.2344 32.375 27.1719 43.4844
Q33.1094 54.5938 39.7969 62.2031
z
" id="ArialMT-37"/>
      </defs>
      <g style="fill:#262626;" transform="translate(475.8725 366.4728125)rotate(-90.0)scale(0.1 -0.1)">
       <use xlink:href="#ArialMT-31"/>
       <use x="55.615234375" xlink:href="#ArialMT-37"/>
       <use x="111.23046875" xlink:href="#ArialMT-20"/>
       <use x="139.013671875" xlink:href="#ArialMT-4f"/>
       <use x="216.796875" xlink:href="#ArialMT-63"/>
       <use x="266.796875" xlink:href="#ArialMT-74"/>
      </g>
     </g>
    </g>
    <g id="xtick_7">
     <g id="line2d_7">
      <path clip-path="url(#p194bd78a20)" d="
M558.54 330.09
L558.54 26.96" style="fill:none;stroke:#ffffff;stroke-linecap:round;"/>
     </g>
     <g id="text_7">
      <!-- 18 Oct -->
      <defs>
       <path d="
M17.6719 38.8125
Q12.2031 40.8281 9.5625 44.5312
Q6.9375 48.25 6.9375 53.4219
Q6.9375 61.2344 12.5469 66.5469
Q18.1719 71.875 27.4844 71.875
Q36.8594 71.875 42.5781 66.4219
Q48.2969 60.9844 48.2969 53.1719
Q48.2969 48.1875 45.6719 44.5
Q43.0625 40.8281 37.75 38.8125
Q44.3438 36.6719 47.7812 31.875
Q51.2188 27.0938 51.2188 20.4531
Q51.2188 11.2812 44.7188 5.03125
Q38.2344 -1.21875 27.6406 -1.21875
Q17.0469 -1.21875 10.5469 5.04688
Q4.04688 11.3281 4.04688 20.7031
Q4.04688 27.6875 7.59375 32.3906
Q11.1406 37.1094 17.6719 38.8125
M15.9219 53.7188
Q15.9219 48.6406 19.1875 45.4062
Q22.4688 42.1875 27.6875 42.1875
Q32.7656 42.1875 36.0156 45.375
Q39.2656 48.5781 39.2656 53.2188
Q39.2656 58.0625 35.9062 61.3594
Q32.5625 64.6562 27.5938 64.6562
Q22.5625 64.6562 19.2344 61.4219
Q15.9219 58.2031 15.9219 53.7188
M13.0938 20.6562
Q13.0938 16.8906 14.875 13.375
Q16.6562 9.85938 20.1719 7.92188
Q23.6875 6 27.7344 6
Q34.0312 6 38.125 10.0469
Q42.2344 14.1094 42.2344 20.3594
Q42.2344 26.7031 38.0156 30.8594
Q33.7969 35.0156 27.4375 35.0156
Q21.2344 35.0156 17.1562 30.9062
Q13.0938 26.8125 13.0938 20.6562" id="ArialMT-38"/>
      </defs>
      <g style="fill:#262626;" transform="translate(561.12515625 366.4728125)rotate(-90.0)scale(0.1 -0.1)">
       <use xlink:href="#ArialMT-31"/>
       <use x="55.615234375" xlink:href="#ArialMT-38"/>
       <use x="111.23046875" xlink:href="#ArialMT-20"/>
       <use x="139.013671875" xlink:href="#ArialMT-4f"/>
       <use x="216.796875" xlink:href="#ArialMT-63"/>
       <use x="266.796875" xlink:href="#ArialMT-74"/>
      </g>
     </g>
    </g>
    <g id="text_8">
     <!-- Fecha -->
     <defs>
      <path d="
M24.75 -1.03125
Q15.3281 -1.03125 9.65625 5.51562
Q4 12.0625 4 22.2656
L4 29.9844
Q4 40.3281 9.54688 47.0625
Q15.0938 53.8125 23.6406 53.8125
Q32.625 53.8125 37.4531 47.6719
Q42.2812 41.5469 42.2812 31.2031
L42.2812 24.3594
L13.875 24.3594
L13.875 22.2656
Q13.875 15.4375 16.875 10.9688
Q19.875 6.5 25.3906 6.5
Q29.5 6.5 32.4219 7.78125
Q35.3594 9.07812 37.9844 11.5781
L41.1094 5.42188
Q38.625 2.59375 34.4219 0.78125
Q30.2188 -1.03125 24.75 -1.03125
M23.6406 46.1875
Q19.3438 46.1875 16.75 42.0156
Q14.1562 37.8438 13.875 31.4531
L32.4688 31.4531
L32.4688 33.4531
Q32.4688 39.0625 30.2188 42.625
Q27.9844 46.1875 23.6406 46.1875" id="RobotoCondensed-Regular-65"/>
      <path d="
M32.5625 0
Q32.0312 1.8125 31.6875 3.54688
Q31.3438 5.28125 31.25 7.03125
Q29.0469 3.46875 25.7188 1.21875
Q22.4062 -1.03125 18.3594 -1.03125
Q11.6719 -1.03125 7.89062 3.1875
Q4.10938 7.42188 4.10938 14.5
Q4.10938 22.0781 9.25 26.3906
Q14.4062 30.7188 23.7344 30.7188
L31.1094 30.7188
L31.1094 36.1406
Q31.1094 40.9688 28.9531 43.6719
Q26.8125 46.3906 22.8594 46.3906
Q19.2812 46.3906 17.1094 43.9375
Q14.9375 41.5 14.9375 37.8438
L5.51562 37.8906
L5.375 38.1875
Q5.125 44.2812 10.25 49.0469
Q15.375 53.8125 23.4844 53.8125
Q31.2969 53.8125 36.1562 49.1875
Q41.0156 44.5781 41.0156 36.0312
L41.0156 11.5312
Q41.0156 8.45312 41.375 5.59375
Q41.75 2.73438 42.5781 0
z

M20.6094 6.59375
Q24.0781 6.59375 26.9219 8.64062
Q29.7812 10.6875 31.1094 13.7656
L31.1094 24.5625
L23.5781 24.5625
Q19.0469 24.5625 16.5312 21.6562
Q14.0156 18.75 14.0156 14.5469
Q14.0156 10.9844 15.7188 8.78125
Q17.4375 6.59375 20.6094 6.59375" id="RobotoCondensed-Regular-61"/>
      <path d="
M43.2188 31.5938
L16.7969 31.5938
L16.7969 0
L6.89062 0
L6.89062 71.0938
L47.4688 71.0938
L47.4688 63.4844
L16.7969 63.4844
L16.7969 39.1562
L43.2188 39.1562
z
" id="RobotoCondensed-Regular-46"/>
      <path d="
M15.4375 45.75
Q17.625 49.5625 20.8438 51.6875
Q24.0781 53.8125 28.0312 53.8125
Q35.1562 53.8125 39.1094 48.5312
Q43.0625 43.2656 43.0625 32.3281
L43.0625 0
L33.1562 0
L33.1562 32.4219
Q33.1562 39.7031 31.0312 42.8906
Q28.9062 46.0938 24.7031 46.0938
Q21.6875 46.0938 19.3125 44.3594
Q16.9375 42.625 15.4375 39.5938
L15.4375 0
L5.51562 0
L5.51562 76.1719
L15.4375 76.1719
z
" id="RobotoCondensed-Regular-68"/>
      <path d="
M24.0312 6.5
Q27.7344 6.5 30.2656 9.34375
Q32.8125 12.2031 32.8125 17
L41.7031 17
L41.7969 16.7031
Q42 9.23438 36.75 4.09375
Q31.5 -1.03125 24.0312 -1.03125
Q14.1562 -1.03125 8.90625 5.65625
Q3.65625 12.3594 3.65625 22.7031
L3.65625 29.9844
Q3.65625 40.3281 8.90625 47.0625
Q14.1562 53.8125 23.9688 53.8125
Q31.9844 53.8125 36.9844 48.4531
Q42 43.1094 41.8438 34.625
L41.7031 34.3281
L32.8125 34.3281
Q32.8125 39.5938 30.3906 42.8906
Q27.9844 46.1875 23.9688 46.1875
Q18.3125 46.1875 15.9375 41.5938
Q13.5781 37.0156 13.5781 29.9844
L13.5781 22.7031
Q13.5781 15.5781 15.9375 11.0312
Q18.3125 6.5 24.0312 6.5" id="RobotoCondensed-Regular-63"/>
     </defs>
     <g style="fill:#262626;" transform="translate(289.31484375 380.6134375)scale(0.12 -0.12)">
      <use xlink:href="#RobotoCondensed-Regular-46"/>
      <use x="49.8046875" xlink:href="#RobotoCondensed-Regular-65"/>
      <use x="95.21484375" xlink:href="#RobotoCondensed-Regular-63"/>
      <use x="140.185546875" xlink:href="#RobotoCondensed-Regular-68"/>
      <use x="188.76953125" xlink:href="#RobotoCondensed-Regular-61"/>
     </g>
    </g>
   </g>
   <g id="matplotlib.axis_2">
    <g id="ytick_1">
     <g id="line2d_8">
      <path clip-path="url(#p194bd78a20)" d="
M47.0241 330.09
L558.54 330.09" style="fill:none;stroke:#ffffff;stroke-linecap:round;"/>
     </g>
     <g id="text_9">
      <!-- 0 -->
      <defs>
       <path d="
M4.15625 35.2969
Q4.15625 48 6.76562 55.7344
Q9.375 63.4844 14.5156 67.6719
Q19.6719 71.875 27.4844 71.875
Q33.25 71.875 37.5938 69.5469
Q41.9375 67.2344 44.7656 62.8594
Q47.6094 58.5 49.2188 52.2188
Q50.8281 45.9531 50.8281 35.2969
Q50.8281 22.7031 48.2344 14.9688
Q45.6562 7.23438 40.5 3
Q35.3594 -1.21875 27.4844 -1.21875
Q17.1406 -1.21875 11.2344 6.20312
Q4.15625 15.1406 4.15625 35.2969
M13.1875 35.2969
Q13.1875 17.6719 17.3125 11.8281
Q21.4375 6 27.4844 6
Q33.5469 6 37.6719 11.8594
Q41.7969 17.7188 41.7969 35.2969
Q41.7969 52.9844 37.6719 58.7812
Q33.5469 64.5938 27.3906 64.5938
Q21.3438 64.5938 17.7188 59.4688
Q13.1875 52.9375 13.1875 35.2969" id="ArialMT-30"/>
      </defs>
      <g style="fill:#262626;" transform="translate(35.356875 332.67515625)scale(0.1 -0.1)">
       <use xlink:href="#ArialMT-30"/>
      </g>
     </g>
    </g>
    <g id="ytick_2">
     <g id="line2d_9">
      <path clip-path="url(#p194bd78a20)" d="
M47.0241 279.568
L558.54 279.568" style="fill:none;stroke:#ffffff;stroke-linecap:round;"/>
     </g>
     <g id="text_10">
      <!-- 5 -->
      <g style="fill:#262626;" transform="translate(35.27875 282.153489583)scale(0.1 -0.1)">
       <use xlink:href="#ArialMT-35"/>
      </g>
     </g>
    </g>
    <g id="ytick_3">
     <g id="line2d_10">
      <path clip-path="url(#p194bd78a20)" d="
M47.0241 229.047
L558.54 229.047" style="fill:none;stroke:#ffffff;stroke-linecap:round;"/>
     </g>
     <g id="text_11">
      <!-- 10 -->
      <g style="fill:#262626;" transform="translate(30.469375 231.631822917)scale(0.1 -0.1)">
       <use xlink:href="#ArialMT-31"/>
       <use x="55.615234375" xlink:href="#ArialMT-30"/>
      </g>
     </g>
    </g>
    <g id="ytick_4">
     <g id="line2d_11">
      <path clip-path="url(#p194bd78a20)" d="
M47.0241 178.525
L558.54 178.525" style="fill:none;stroke:#ffffff;stroke-linecap:round;"/>
     </g>
     <g id="text_12">
      <!-- 15 -->
      <g style="fill:#262626;" transform="translate(30.39125 181.11015625)scale(0.1 -0.1)">
       <use xlink:href="#ArialMT-31"/>
       <use x="55.615234375" xlink:href="#ArialMT-35"/>
      </g>
     </g>
    </g>
    <g id="ytick_5">
     <g id="line2d_12">
      <path clip-path="url(#p194bd78a20)" d="
M47.0241 128.003
L558.54 128.003" style="fill:none;stroke:#ffffff;stroke-linecap:round;"/>
     </g>
     <g id="text_13">
      <!-- 20 -->
      <g style="fill:#262626;" transform="translate(29.6740625 130.588489583)scale(0.1 -0.1)">
       <use xlink:href="#ArialMT-32"/>
       <use x="55.615234375" xlink:href="#ArialMT-30"/>
      </g>
     </g>
    </g>
    <g id="ytick_6">
     <g id="line2d_13">
      <path clip-path="url(#p194bd78a20)" d="
M47.0241 77.4817
L558.54 77.4817" style="fill:none;stroke:#ffffff;stroke-linecap:round;"/>
     </g>
     <g id="text_14">
      <!-- 25 -->
      <g style="fill:#262626;" transform="translate(29.5959375 80.0668229167)scale(0.1 -0.1)">
       <use xlink:href="#ArialMT-32"/>
       <use x="55.615234375" xlink:href="#ArialMT-35"/>
      </g>
     </g>
    </g>
    <g id="ytick_7">
     <g id="line2d_14">
      <path clip-path="url(#p194bd78a20)" d="
M47.0241 26.96
L558.54 26.96" style="fill:none;stroke:#ffffff;stroke-linecap:round;"/>
     </g>
     <g id="text_15">
      <!-- 30 -->
      <g style="fill:#262626;" transform="translate(29.800625 29.54515625)scale(0.1 -0.1)">
       <use xlink:href="#ArialMT-33"/>
       <use x="55.615234375" xlink:href="#ArialMT-30"/>
      </g>
     </g>
    </g>
    <g id="text_16">
     <!-- Número de tuits por día -->
     <defs>
      <path id="RobotoCondensed-Regular-20"/>
      <path d="
M16.2188 0
L6.29688 0
L6.29688 52.8281
L16.2188 52.8281
z

M14.75 72.1719
L25.7812 72.1719
L25.875 71.9219
L14.25 59.1875
L6.34375 59.1875
z
" id="RobotoCondensed-Regular-ed"/>
      <path d="
M14.7031 52.8281
L15.2344 45.6562
Q17.3906 49.5625 20.7031 51.6875
Q24.0312 53.8125 28.4688 53.8125
Q32.8125 53.8125 35.9375 51.3906
Q39.0625 48.9688 40.6719 44.0469
Q42.7188 48.6406 46.1406 51.2188
Q49.5625 53.8125 54.25 53.8125
Q60.9844 53.8125 64.8594 48.2656
Q68.75 42.7188 68.75 31.3906
L68.75 0
L58.8438 0
L58.8438 31.4531
Q58.8438 39.5469 56.8281 42.8125
Q54.8281 46.0938 50.9219 46.0938
Q47.5625 46.0938 45.2812 43.5312
Q43.0156 40.9688 42 36.7188
Q41.9375 37.1094 42.0312 35.4688
Q42.1406 33.8438 42.1406 33.1094
L42.1406 0
L32.2812 0
L32.2812 31.4531
Q32.2812 39.3125 30.2188 42.7031
Q28.1719 46.0938 24.2656 46.0938
Q21.1406 46.0938 18.9375 44.3594
Q16.75 42.625 15.5312 39.5469
L15.5312 0
L5.67188 0
L5.67188 52.8281
z
" id="RobotoCondensed-Regular-6d"/>
      <path d="
M3.71875 29.7344
Q3.71875 40.2344 9.20312 47.0156
Q14.7031 53.8125 24.2656 53.8125
Q33.7969 53.8125 39.3125 47.0469
Q44.8281 40.2812 44.8281 29.7344
L44.8281 23
Q44.8281 12.4062 39.3281 5.6875
Q33.8438 -1.03125 24.3125 -1.03125
Q14.7031 -1.03125 9.20312 5.6875
Q3.71875 12.4062 3.71875 23
z

M13.625 23
Q13.625 15.7656 16.25 11.125
Q18.8906 6.5 24.3125 6.5
Q29.5938 6.5 32.25 11.125
Q34.9062 15.7656 34.9062 23
L34.9062 29.7344
Q34.9062 36.8594 32.25 41.5156
Q29.5938 46.1875 24.2656 46.1875
Q18.8906 46.1875 16.25 41.5469
Q13.625 36.9219 13.625 29.7344
z
" id="RobotoCondensed-Regular-6f"/>
      <path d="
M33.5469 7.07812
Q31.4531 3.17188 28.1719 1.0625
Q24.9062 -1.03125 20.6562 -1.03125
Q13.4844 -1.03125 9.46875 4.48438
Q5.46875 10.0156 5.46875 21.625
L5.46875 52.8281
L15.3281 52.8281
L15.3281 21.5312
Q15.3281 13.4219 17.25 10.0312
Q19.1875 6.64062 23.0469 6.64062
Q26.7031 6.64062 29.1719 8.34375
Q31.6406 10.0625 33.1094 13.2344
L33.1094 52.8281
L43.0156 52.8281
L43.0156 0
L34.1875 0
z

M27.625 72.1719
L38.6562 72.1719
L38.75 71.9219
L27.125 59.1875
L19.2188 59.1875
z
" id="RobotoCondensed-Regular-fa"/>
      <path d="
M53.9062 0
L44.0469 0
L17.0938 52.875
L16.7969 52.7812
L16.7969 0
L6.89062 0
L6.89062 71.0938
L16.7969 71.0938
L43.75 18.3594
L44.0469 18.4531
L44.0469 71.0938
L53.9062 71.0938
z
" id="RobotoCondensed-Regular-4e"/>
      <path d="
M16.2188 0
L6.29688 0
L6.29688 52.8281
L16.2188 52.8281
z

M16.2188 66.7031
L6.29688 66.7031
L6.29688 76.1719
L16.2188 76.1719
z
" id="RobotoCondensed-Regular-69"/>
      <path d="
M3.8125 25.7812
Q3.8125 38.4219 8.375 46.1094
Q12.9375 53.8125 21.2344 53.8125
Q24.9531 53.8125 27.8594 52.1406
Q30.7656 50.4844 32.8594 47.3594
L32.8594 76.1719
L42.7188 76.1719
L42.7188 0
L34.0781 0
L33.3438 6.0625
Q31.25 2.59375 28.1875 0.78125
Q25.1406 -1.03125 21.1875 -1.03125
Q12.9375 -1.03125 8.375 6
Q3.8125 13.0312 3.8125 24.75
z

M13.7188 24.75
Q13.7188 16.4062 16.1094 11.5156
Q18.5 6.64062 23.6875 6.64062
Q26.9062 6.64062 29.1719 8.39062
Q31.4531 10.1562 32.8594 13.3281
L32.8594 39.0156
Q31.4531 42.2812 29.1719 44.1875
Q26.9062 46.0938 23.7812 46.0938
Q18.6094 46.0938 16.1562 40.4688
Q13.7188 34.8594 13.7188 25.7812
z
" id="RobotoCondensed-Regular-64"/>
      <path d="
M33.5469 7.07812
Q31.4531 3.17188 28.1719 1.0625
Q24.9062 -1.03125 20.6562 -1.03125
Q13.4844 -1.03125 9.46875 4.48438
Q5.46875 10.0156 5.46875 21.625
L5.46875 52.8281
L15.3281 52.8281
L15.3281 21.5312
Q15.3281 13.4219 17.25 10.0312
Q19.1875 6.64062 23.0469 6.64062
Q26.7031 6.64062 29.1719 8.34375
Q31.6406 10.0625 33.1094 13.2344
L33.1094 52.8281
L43.0156 52.8281
L43.0156 0
L34.1875 0
z
" id="RobotoCondensed-Regular-75"/>
      <path d="
M18.3125 65.9688
L18.3125 52.8281
L26.5625 52.8281
L26.5625 45.75
L18.3125 45.75
L18.3125 14.3125
Q18.3125 10.2031 19.5312 8.46875
Q20.75 6.73438 22.7031 6.73438
Q23.875 6.73438 24.875 6.875
Q25.875 7.03125 27.25 7.32812
L28.2656 0.484375
Q26.6094 -0.203125 24.5312 -0.609375
Q22.4688 -1.03125 20.2656 -1.03125
Q14.6562 -1.03125 11.5469 2.65625
Q8.45312 6.34375 8.45312 14.3125
L8.45312 45.75
L1.5625 45.75
L1.5625 52.8281
L8.45312 52.8281
L8.45312 65.9688
z
" id="RobotoCondensed-Regular-74"/>
      <path d="
M30.2812 13.2344
Q30.2812 16.3125 28.25 18.4375
Q26.2188 20.5625 20.6094 23.0938
Q12.4531 26.2656 8.51562 29.8594
Q4.59375 33.4531 4.59375 39.1562
Q4.59375 45.2656 9.39062 49.5312
Q14.2031 53.8125 22.0156 53.8125
Q30.1719 53.8125 35 49.1875
Q39.8438 44.5781 39.6562 37.7031
L39.5469 37.4062
L30.0312 37.4062
Q30.0312 41.1562 27.9062 43.8594
Q25.7812 46.5781 22.0156 46.5781
Q18.3125 46.5781 16.2344 44.4844
Q14.1562 42.3906 14.1562 39.5469
Q14.1562 36.5312 15.9375 34.7656
Q17.7188 33.0156 23.6406 30.1719
Q31.9375 27.2031 35.9531 23.4062
Q39.9844 19.625 39.9844 13.7188
Q39.9844 7.17188 35 3.0625
Q30.0312 -1.03125 21.9219 -1.03125
Q13.1875 -1.03125 8.15625 3.92188
Q3.125 8.89062 3.375 15.5312
L3.46875 15.8281
L12.7031 15.8281
Q12.8906 10.6875 15.5312 8.42188
Q18.1719 6.15625 22.0781 6.15625
Q25.9219 6.15625 28.0938 8.125
Q30.2812 10.1094 30.2812 13.2344" id="RobotoCondensed-Regular-73"/>
      <path d="
M28.4219 44.4844
L23.7812 44.7344
Q20.7031 44.7344 18.6719 42.875
Q16.6562 41.0156 15.5781 37.6406
L15.5781 0
L5.67188 0
L5.67188 52.8281
L14.7031 52.8281
L15.4375 44.875
Q17.0938 49.0781 19.7812 51.4375
Q22.4688 53.8125 25.9844 53.8125
Q26.9531 53.8125 27.9688 53.6406
Q29 53.4688 29.5938 53.2188
z
" id="RobotoCondensed-Regular-72"/>
      <path d="
M44.7344 22.0156
Q44.7344 11.5781 40.1406 5.26562
Q35.5469 -1.03125 27.3906 -1.03125
Q23.5312 -1.03125 20.5938 0.484375
Q17.6719 2 15.5781 4.9375
L15.5781 -20.3125
L5.67188 -20.3125
L5.67188 52.8281
L14.5 52.8281
L15.1406 46.7812
Q17.2344 50.1406 20.2656 51.9688
Q23.2969 53.8125 27.2969 53.8125
Q35.5469 53.8125 40.1406 46.875
Q44.7344 39.9375 44.7344 28.5156
z

M34.8125 28.5156
Q34.8125 36.2812 32.25 41.1875
Q29.6875 46.0938 24.6094 46.0938
Q21.4375 46.0938 19.1875 44.2812
Q16.9375 42.4844 15.5781 39.3594
L15.5781 12.6406
Q16.8906 9.67188 19.1406 8.07812
Q21.3906 6.5 24.6562 6.5
Q29.7812 6.5 32.2969 10.7656
Q34.8125 15.0469 34.8125 22.0156
z
" id="RobotoCondensed-Regular-70"/>
     </defs>
     <g style="fill:#262626;" transform="translate(22.1584375 233.005)rotate(-90.0)scale(0.12 -0.12)">
      <use xlink:href="#RobotoCondensed-Regular-4e"/>
      <use x="60.888671875" xlink:href="#RobotoCondensed-Regular-fa"/>
      <use x="109.47265625" xlink:href="#RobotoCondensed-Regular-6d"/>
      <use x="183.935546875" xlink:href="#RobotoCondensed-Regular-65"/>
      <use x="229.345703125" xlink:href="#RobotoCondensed-Regular-72"/>
      <use x="260.25390625" xlink:href="#RobotoCondensed-Regular-6f"/>
      <use x="308.837890625" xlink:href="#RobotoCondensed-Regular-20"/>
      <use x="330.615234375" xlink:href="#RobotoCondensed-Regular-64"/>
      <use x="379.19921875" xlink:href="#RobotoCondensed-Regular-65"/>
      <use x="424.609375" xlink:href="#RobotoCondensed-Regular-20"/>
      <use x="446.38671875" xlink:href="#RobotoCondensed-Regular-74"/>
      <use x="477.05078125" xlink:href="#RobotoCondensed-Regular-75"/>
      <use x="525.634765625" xlink:href="#RobotoCondensed-Regular-69"/>
      <use x="548.193359375" xlink:href="#RobotoCondensed-Regular-74"/>
      <use x="578.857421875" xlink:href="#RobotoCondensed-Regular-73"/>
      <use x="622.36328125" xlink:href="#RobotoCondensed-Regular-20"/>
      <use x="644.140625" xlink:href="#RobotoCondensed-Regular-70"/>
      <use x="692.724609375" xlink:href="#RobotoCondensed-Regular-6f"/>
      <use x="741.30859375" xlink:href="#RobotoCondensed-Regular-72"/>
      <use x="772.216796875" xlink:href="#RobotoCondensed-Regular-20"/>
      <use x="793.994140625" xlink:href="#RobotoCondensed-Regular-64"/>
      <use x="842.578125" xlink:href="#RobotoCondensed-Regular-ed"/>
      <use x="865.4296875" xlink:href="#RobotoCondensed-Regular-61"/>
     </g>
    </g>
   </g>
   <g id="line2d_15">
    <path clip-path="url(#p194bd78a20)" d="
M47.0241 319.986
L55.5493 107.795
L64.0746 178.525
L72.5999 178.525
L81.1251 77.4817
L89.6504 178.525
L98.1757 148.212
L106.701 37.0643
L115.226 77.4817
L123.751 117.899
L132.277 138.108
L140.802 269.464
L149.327 178.525
L157.853 249.255
L166.378 67.3773
L174.903 299.777
L183.428 239.151
L191.954 168.421
L200.479 208.838
L209.004 198.734
L217.529 107.795
L226.055 239.151
L234.58 229.047
L243.105 128.003
L251.63 138.108
L260.156 198.734
L268.681 138.108
L277.206 77.4817
L285.731 117.899
L294.257 168.421
L302.782 158.316
L311.307 148.212
L319.833 188.629
L328.358 148.212
L336.883 188.629
L345.408 168.421
L353.934 178.525
L362.459 239.151
L370.984 188.629
L379.509 229.047
L388.035 158.316
L396.56 148.212
L405.085 168.421
L413.61 198.734
L422.136 158.316
L430.661 87.586
L439.186 239.151
L447.712 168.421
L456.237 148.212
L464.762 117.899
L473.287 178.525
L481.813 158.316
L490.338 208.838" style="fill:none;stroke:#66c2a5;stroke-linecap:round;stroke-width:3.0;"/>
   </g>
   <g id="patch_3">
    <path d="
M47.0241 330.09
L47.0241 26.96" style="fill:none;stroke:#ffffff;stroke-linecap:square;stroke-linejoin:miter;stroke-width:0.5;"/>
   </g>
   <g id="patch_4">
    <path d="
M47.0241 330.09
L558.54 330.09" style="fill:none;stroke:#ffffff;stroke-linecap:square;stroke-linejoin:miter;stroke-width:0.5;"/>
   </g>
   <g id="text_17">
    <!-- Reportes de incendio desde la cuenta @bomberos -->
    <defs>
     <path d="
M14.6562 52.8281
L15.1875 45.0156
Q17.3906 49.1719 20.75 51.4844
Q24.125 53.8125 28.375 53.8125
Q35.2969 53.8125 39.1562 48.6875
Q43.0156 43.5625 43.0156 32.7656
L43.0156 0
L33.1094 0
L33.1094 32.6719
Q33.1094 40.0469 31 43.0625
Q28.9062 46.0938 24.6562 46.0938
Q21.625 46.0938 19.2812 44.2031
Q16.9375 42.3281 15.4844 39.1094
L15.4844 0
L5.5625 0
L5.5625 52.8281
z
" id="RobotoCondensed-Regular-6e"/>
     <path d="
M75.2969 24.8594
Q74.9062 14.3125 69.9375 6.64062
Q64.9844 -1.03125 55.2188 -1.03125
Q51.8594 -1.03125 49.4688 1.17188
Q47.0781 3.375 46.1406 7.375
Q44.0469 3.17188 41.0625 1.09375
Q38.0938 -0.984375 34.125 -0.984375
Q28.3281 -0.984375 25.2188 4.875
Q22.125 10.75 22.9062 20.3125
Q23.9219 32.7656 29 40.3125
Q34.0781 47.8594 41.3125 47.8594
Q46 47.8594 48.8438 46.5625
Q51.7031 45.2656 55.125 42.625
L54.9844 42.4844
L55.2188 42.4844
L52.9844 14.3125
Q52.6406 8.6875 53.8125 6.60938
Q54.9844 4.54688 56.8906 4.54688
Q62.1562 4.54688 65.2969 10.25
Q68.4531 15.9688 68.8438 24.8594
Q69.5781 43.2188 62.7656 53.4688
Q55.9531 63.7188 41.6094 63.7188
Q28.3281 63.7188 20.1875 52.625
Q12.0625 41.5469 11.4688 23.3438
Q10.6875 5.28125 17.9375 -5.48438
Q25.2031 -16.2656 38.7188 -16.2656
Q42.4844 -16.2656 46.3906 -15.2344
Q50.2969 -14.2031 53.0312 -12.5469
L54.5938 -17.7812
Q51.7031 -19.8281 47.2344 -20.9688
Q42.7812 -22.125 38.5312 -22.125
Q21.7812 -22.125 12.6719 -9.9375
Q3.5625 2.25 4.34375 23.3438
Q5.125 44.0938 15.2344 56.7656
Q25.3438 69.4375 41.7969 69.4375
Q58.4062 69.4375 67.1875 57.4688
Q75.9844 45.5156 75.2969 24.8594
M31.1094 20.3125
Q30.6094 13.375 32 9.48438
Q33.4062 5.60938 36.5312 5.60938
Q39.2656 5.60938 41.5 7.125
Q43.75 8.64062 45.5625 12.5938
Q45.5625 12.9375 45.5625 13.2969
Q45.5625 13.6719 45.6562 14.3125
L47.7031 40.4844
Q46.5312 41.0156 45.3125 41.3281
Q44.0938 41.6562 42.8281 41.6562
Q37.6406 41.6562 34.7812 36.3281
Q31.9375 31 31.1094 20.3125" id="RobotoCondensed-Regular-40"/>
     <path d="
M16.2188 0
L6.29688 0
L6.29688 76.1719
L16.2188 76.1719
z
" id="RobotoCondensed-Regular-6c"/>
     <path d="
M44.7812 22.0156
Q44.7812 11.5312 40.2344 5.25
Q35.6875 -1.03125 27.4375 -1.03125
Q23.2969 -1.03125 20.1875 0.796875
Q17.0938 2.64062 14.9844 6.20312
L14.2656 0
L5.67188 0
L5.67188 76.1719
L15.5781 76.1719
L15.5781 47.2656
Q17.625 50.4375 20.5469 52.125
Q23.4844 53.8125 27.3438 53.8125
Q35.6875 53.8125 40.2344 47.0938
Q44.7812 40.375 44.7812 29.2031
z

M34.9062 29.2031
Q34.9062 36.8125 32.4844 41.4531
Q30.0781 46.0938 24.8594 46.0938
Q21.5312 46.0938 19.2031 44.1094
Q16.8906 42.1406 15.5781 38.8125
L15.5781 13.4219
Q16.8906 10.2031 19.2344 8.42188
Q21.5781 6.64062 24.9531 6.64062
Q30.1719 6.64062 32.5312 10.7812
Q34.9062 14.9375 34.9062 22.0156
z
" id="RobotoCondensed-Regular-62"/>
     <path d="
M16.7969 30.6094
L16.7969 0
L6.89062 0
L6.89062 71.0469
L29 71.0469
Q39.1094 71.0469 44.625 65.8125
Q50.1406 60.5938 50.1406 50.8281
Q50.1406 45.2656 47.5781 41.1094
Q45.0156 36.9688 40.1875 34.625
Q45.5156 32.8125 47.875 28.4844
Q50.25 24.1719 50.25 17.8281
L50.25 11.625
Q50.25 8.34375 50.9062 5.53125
Q51.5625 2.73438 53.1719 1.125
L53.1719 0
L42.9688 0
Q41.3125 1.60938 40.8438 4.85938
Q40.375 8.10938 40.375 11.7188
L40.375 17.7188
Q40.375 23.6875 37.6719 27.1406
Q34.9688 30.6094 30.2188 30.6094
z

M16.7969 38.1875
L28.5156 38.1875
Q34.5156 38.1875 37.375 41.4219
Q40.2344 44.6719 40.2344 50.6406
Q40.2344 56.7344 37.4531 60.1094
Q34.6719 63.4844 29 63.4844
L16.7969 63.4844
z
" id="RobotoCondensed-Regular-52"/>
    </defs>
    <g style="fill:#262626;" transform="translate(186.70265625 21.96)scale(0.12 -0.12)">
     <use xlink:href="#RobotoCondensed-Regular-52"/>
     <use x="56.73828125" xlink:href="#RobotoCondensed-Regular-65"/>
     <use x="102.1484375" xlink:href="#RobotoCondensed-Regular-70"/>
     <use x="150.732421875" xlink:href="#RobotoCondensed-Regular-6f"/>
     <use x="199.31640625" xlink:href="#RobotoCondensed-Regular-72"/>
     <use x="230.224609375" xlink:href="#RobotoCondensed-Regular-74"/>
     <use x="260.888671875" xlink:href="#RobotoCondensed-Regular-65"/>
     <use x="306.298828125" xlink:href="#RobotoCondensed-Regular-73"/>
     <use x="349.8046875" xlink:href="#RobotoCondensed-Regular-20"/>
     <use x="371.58203125" xlink:href="#RobotoCondensed-Regular-64"/>
     <use x="420.166015625" xlink:href="#RobotoCondensed-Regular-65"/>
     <use x="465.576171875" xlink:href="#RobotoCondensed-Regular-20"/>
     <use x="487.353515625" xlink:href="#RobotoCondensed-Regular-69"/>
     <use x="509.912109375" xlink:href="#RobotoCondensed-Regular-6e"/>
     <use x="558.49609375" xlink:href="#RobotoCondensed-Regular-63"/>
     <use x="603.466796875" xlink:href="#RobotoCondensed-Regular-65"/>
     <use x="648.876953125" xlink:href="#RobotoCondensed-Regular-6e"/>
     <use x="697.4609375" xlink:href="#RobotoCondensed-Regular-64"/>
     <use x="746.044921875" xlink:href="#RobotoCondensed-Regular-69"/>
     <use x="768.603515625" xlink:href="#RobotoCondensed-Regular-6f"/>
     <use x="817.1875" xlink:href="#RobotoCondensed-Regular-20"/>
     <use x="838.96484375" xlink:href="#RobotoCondensed-Regular-64"/>
     <use x="887.548828125" xlink:href="#RobotoCondensed-Regular-65"/>
     <use x="932.958984375" xlink:href="#RobotoCondensed-Regular-73"/>
     <use x="976.46484375" xlink:href="#RobotoCondensed-Regular-64"/>
     <use x="1025.048828125" xlink:href="#RobotoCondensed-Regular-65"/>
     <use x="1070.458984375" xlink:href="#RobotoCondensed-Regular-20"/>
     <use x="1092.236328125" xlink:href="#RobotoCondensed-Regular-6c"/>
     <use x="1114.794921875" xlink:href="#RobotoCondensed-Regular-61"/>
     <use x="1161.42578125" xlink:href="#RobotoCondensed-Regular-20"/>
     <use x="1183.203125" xlink:href="#RobotoCondensed-Regular-63"/>
     <use x="1228.173828125" xlink:href="#RobotoCondensed-Regular-75"/>
     <use x="1276.7578125" xlink:href="#RobotoCondensed-Regular-65"/>
     <use x="1322.16796875" xlink:href="#RobotoCondensed-Regular-6e"/>
     <use x="1370.751953125" xlink:href="#RobotoCondensed-Regular-74"/>
     <use x="1401.416015625" xlink:href="#RobotoCondensed-Regular-61"/>
     <use x="1448.046875" xlink:href="#RobotoCondensed-Regular-20"/>
     <use x="1469.82421875" xlink:href="#RobotoCondensed-Regular-40"/>
     <use x="1549.658203125" xlink:href="#RobotoCondensed-Regular-62"/>
     <use x="1598.2421875" xlink:href="#RobotoCondensed-Regular-6f"/>
     <use x="1646.826171875" xlink:href="#RobotoCondensed-Regular-6d"/>
     <use x="1721.2890625" xlink:href="#RobotoCondensed-Regular-62"/>
     <use x="1769.873046875" xlink:href="#RobotoCondensed-Regular-65"/>
     <use x="1815.283203125" xlink:href="#RobotoCondensed-Regular-72"/>
     <use x="1846.19140625" xlink:href="#RobotoCondensed-Regular-6f"/>
     <use x="1894.775390625" xlink:href="#RobotoCondensed-Regular-73"/>
    </g>
   </g>
  </g>
 </g>
 <defs>
  <clipPath id="p194bd78a20">
   <rect height="303.13" width="511.5159375" x="47.0240625" y="26.96"/>
  </clipPath>
 </defs>
</svg>
